<mxfile host="app.diagrams.net" agent="Mozilla/5.0 (Windows NT 10.0; Win64; x64; rv:142.0) Gecko/20100101 Firefox/142.0" version="28.1.1">
  <diagram name="Page-1" id="TVDEfabvVllhVEBOQw3r">
    <mxGraphModel dx="1426" dy="751" grid="1" gridSize="10" guides="1" tooltips="1" connect="1" arrows="1" fold="1" page="1" pageScale="1" pageWidth="827" pageHeight="1169" math="0" shadow="0">
      <root>
        <mxCell id="0" />
        <mxCell id="1" parent="0" />
        <mxCell id="H3UDUS9OnX6FCk1xAzzP-6" style="edgeStyle=orthogonalEdgeStyle;rounded=0;orthogonalLoop=1;jettySize=auto;html=1;exitX=0.4;exitY=0.1;exitDx=0;exitDy=0;exitPerimeter=0;endArrow=none;endFill=0;" edge="1" parent="1" source="U9ZNTA2ST8haMCnoKl1E-1" target="H3UDUS9OnX6FCk1xAzzP-1">
          <mxGeometry relative="1" as="geometry" />
        </mxCell>
        <mxCell id="U9ZNTA2ST8haMCnoKl1E-1" value="Internet" style="ellipse;shape=cloud;whiteSpace=wrap;html=1;" parent="1" vertex="1">
          <mxGeometry x="329" y="240" width="85" height="60" as="geometry" />
        </mxCell>
        <mxCell id="U9ZNTA2ST8haMCnoKl1E-3" value="" style="endArrow=classic;html=1;rounded=0;entryX=0.31;entryY=0.8;entryDx=0;entryDy=0;entryPerimeter=0;exitX=0.5;exitY=0;exitDx=0;exitDy=0;" parent="1" target="U9ZNTA2ST8haMCnoKl1E-1" edge="1" source="H3UDUS9OnX6FCk1xAzzP-3">
          <mxGeometry width="50" height="50" relative="1" as="geometry">
            <mxPoint x="300" y="320" as="sourcePoint" />
            <mxPoint x="320" y="270" as="targetPoint" />
          </mxGeometry>
        </mxCell>
        <mxCell id="U9ZNTA2ST8haMCnoKl1E-4" value="KIT Cloud&lt;br&gt;ecritf.paytec.ch:443 (TLS)" style="text;html=1;align=center;verticalAlign=middle;resizable=0;points=[];autosize=1;strokeColor=none;fillColor=none;" parent="1" vertex="1">
          <mxGeometry x="283.5" y="110" width="160" height="40" as="geometry" />
        </mxCell>
        <mxCell id="U9ZNTA2ST8haMCnoKl1E-5" value="" style="endArrow=classic;html=1;rounded=0;entryX=0.8;entryY=0.8;entryDx=0;entryDy=0;entryPerimeter=0;exitX=0.25;exitY=0;exitDx=0;exitDy=0;" parent="1" target="U9ZNTA2ST8haMCnoKl1E-1" edge="1" source="H3UDUS9OnX6FCk1xAzzP-4">
          <mxGeometry width="50" height="50" relative="1" as="geometry">
            <mxPoint x="450" y="320" as="sourcePoint" />
            <mxPoint x="480" y="310" as="targetPoint" />
          </mxGeometry>
        </mxCell>
        <mxCell id="H3UDUS9OnX6FCk1xAzzP-1" value="" style="sketch=0;pointerEvents=1;shadow=0;dashed=0;html=1;strokeColor=none;labelPosition=center;verticalLabelPosition=bottom;verticalAlign=top;outlineConnect=0;align=center;shape=mxgraph.office.servers.physical_host;fillColor=#2072B8;" vertex="1" parent="1">
          <mxGeometry x="350" y="150" width="27" height="50" as="geometry" />
        </mxCell>
        <mxCell id="H3UDUS9OnX6FCk1xAzzP-3" value="" style="shape=image;verticalLabelPosition=bottom;labelBackgroundColor=default;verticalAlign=top;aspect=fixed;imageAspect=0;image=data:image/png,iVBORw0KGgoAAAANSUhEUgAAAgAAAAIACAYAAAD0eNT6AAAgAElEQVR4Xu2dB5gUVfa3T1V3Tw4wCIIEGaIoiooBFQmKCRTjyLqm5VtX17iGXbOCirq65rCuYf+yZhxMKGZATOiuiJjIIDkzTGRmurvquzWKogPTfapvdd1b/at99nH38dxb577n9NTb1RUMwgYCIAACIAACIJBxBIyMWzEWDAIgAAIgAAIgQBAANAEIgAAIgAAIZCABCEAGFh1LBgEQAAEQAAEIAHoABEAABEAABDKQAAQgA4uOJYMACIAACIAABAA9AAIgAAIgAAIZSAACkIFFx5JBAARAAARAAAKAHuAQMPYZflKXuB3qbpp2G8s0ikyDCux4KIczCWJBAARSJ2CE4vWWTTWmZVdZlrExUkALZ5aXLxcz26nPjhkygQAEIBOq7HKNu114YZusleuHUNQ4TPyxOci0qbdlUZ7L6TAMBEDAYwKmSXWWQfMMgz6NmKGp1bvsNH3uww9v9Hi3mF5TAhAATQvnVdr9h5UVx/PtMjtOZ5FhHkKWZXq1L8wLAiDgMQHTtEKW8XHMtJ7asyir/Nlnn63yeI+YXiMCEACNiuVlqgNHjepVU01XGyHrd5Zl53q5L8wNAiCQfgKmaWyxbPt5o6jg7189N35B+jPAHlUjAAFQrSJpzqf/aaftFqu2xpBhn4pv+2mGj92BgA8EhAjEybJfzC8Ijf14woT5PqSAXSpCAAKgSCHSnUZZWVnukmjoqmg0drXYd3a694/9gQAI+EvAJDNqmdYjvXKM68rLy2v8zQZ794MABMAP6j7v86CyssFb6qzxNhldfU4FuwcBEPCbgGksCVnZZ385+ZmP/E4F+08vAQhAenn7vTdj75Fllxhx4x8WWRG/k8H+QQAE1CDg/CwQCoXGffHK8zeTYVhqZIUsvCYAAfCasCLz9x45sjAnnv2iuEX4aEVSQhogAAKKEbCN0Ju9c61R+ElAscJ4lA4EwCOwKk17VFlZyZoGczLF4wNUygu5gAAIqEdAPEXoC8qKj/j6lVfWqZcdMpJJAAIgk6aCcw05/fROFZvrpxAZvRRMDymBAAgoScCeT3nmYbPLy1cqmR6SkkIAAiAFo5qTOA/1sXLM6ZYd76dmhsgKBEBAVQKGSd/tnGMMeqe8fJOqOSKv1AhAAFLjp+xo5za/+fX0rrjfd6CySSIxEAAB1Ql8bvc58PCv7/pbreqJIj8+AQgAn5kWI/YZPuo/lhE/S4tkkSQIgICyBMSzwJ+fNXni75VNEIm5JgABcI1O3YF7HVf2R8Oyn1A3Q2QGAiCgE4GQbYz+8s3y8TrljFwTE4AAJGakVcSgUaP6VNfFv8Bb+7QqG5IFAaUJOG8ZNAsi/Wc+//xcpRNFciwCEAAWLuWDjb1HjJpiU3yo8pkiQRAAAa0IhCj04ZeTJwwRSYs7BbEFgQAEIAhV/GkNe484+WzxeF+cpgtQTbEUEFCJQChEZ3w5aeKzKuWEXNwTgAC4Z6fUSHHVf8H8BnsRxamdUokhGRAAgcAQEBcErjY7lvSY+dhjdYFZVAYvBAIQkOLvdfzv/mrEYv8IyHKwDBAAAUUJhIgu+3LyxPsUTQ9pMQhAABiwVA3tcfHF2YU/rF1sWdYuquaIvEAABIJBwDkL0G//Ed3Gjx1dH4wVZe4qIAABqP3ex59yjh2jxwOwFCwBBEBAAwIm2X+cNfml/9MgVaTYAgEIQADaY58Rp3wi3t95cACWgiWAAAhoQOCnOwIGa5AqUoQABLcHhpSV9aioEy/uEG/7Ce4qsTIQAAHFCNgWZfX4ZvJzixXLC+kwCOCgwYClYuhew08ZYxg0VsXckBMIgEBwCRgUvu6ryS/cFtwVBn9lEADNa4zT/5oXEOmDgKYEbNuY/vWb5UM0TR9p47Sx3j3g3Pu/sM7YZJEV0XslyB4EQEA7AqbRaPc+oARvCtSucj8njDMA+taO9jxm1DGmGX9T4yUgdRAAAZ0JREJHzX51wrs6LyGTc4cAaFz9vU445RojSvgNTuMaInUQ0JmAeEvgleItgXgAmaZFhABoWjgn7b1GnjLeiNPZGi8BqYMACGhNwP737MkvnaP1EjI4eQiAxsXvN+KUz0T6B2q8BKQOAiCgMQGDQp98NXnCQI2XkNGpQwA0Lr+4A2CVeABQB42XgNRBAAT0JrBi9uSJnfVeQuZmDwHQuPb9RpxaQ2Tla7wEpA4CIKAxAZPMqlmTXyzWeAkZnToEQNPyi1sAQ/Pr7KhIHzXUtIZIGwQCQMCe/UZ5mAxDnIzEphsBHDx0q9hP+Z5++ulF325uqFQ5/fy8XNqlQwcqLiygUFi8RBQbCIBAUgTisThVVtfQylWrqW7LlqTG+BXUt1V28bPPPlvl1/6xX/cEIADu2fk6cs8Rv29tUuMmX5PYwc53360XHX/MEbR7755khnDgV7FGyEkPAo4IfD9/Ab06+R2aO3+hkkmLdwKUiHcCVCiZHJJqkQAEQNMGUVEAIuEwjT5zFA0+eICmVJE2CKhL4IOPZ9CTz0ygWDyuVJIQAKXKwUoGAsDCpU6wagJgmCb99aJzae8991AHEjIBgYARmDX7W7r7n4+TbanzkzsEQN8mgwBoWjvVBODkkSPopOOO1pQm0gYBfQi8NGkyvfz628okDAFQphTsRCAAbGRqDFBJAFq3KqZ7bxtDkQjeSaRGdyCLIBNobGyky6+9mSoq1bgGGAKgb7dBADStnUoCMFJc8DfqpJGakkTaIKAfgedeepUmvz1FicQhAEqUwVUSEABX2PwfpJIAXHfFxeRc+Y8NBEAgPQS+nTuPbr/7ofTsLMFeIABKlMFVEhAAV9j8H6SSANx3+1hqu1Mb/6EgAxDIEAJr122gy6+7SYnVQgCUKIOrJCAArrD5P0glAXjs/jvJeegPNhAAgfQQqK3bQuf+5cr07AxnAJTg7EUSEAAvqKZhTghAGiBjFyCgKAEIgKKF0SwtCIBmBduaLgRA08IhbRCQQAACIAEipsCLZHTtAQiArpVD3iCQOgEIQOoMMQPeJKdtD0AAtC0dEgeBlAlAAFJGiAkEAfwEoGkbQAA0LRzSBgEJBCAAEiBiCgiArj0AAdC1csgbBFInAAFInSFmwBkAbXsAAqBt6ZA4CKRMAAKQMkJMgJ8A1OqB0gNP27mwuKptVZ2dnxuLF7aUXWO+XVCQU/SKCivAcwBUqAJyyCQCKglATX3ViVm1Rk1L/LeEQ9VFeUZtdWXR+iWfP782k2ql8lpxDYBP1ek9cmQhbd48NBaLHGbbsYOIzN42WcXJpmMYJhW2VuPpexCAZKuGOBCQQ0AlAaiu2Ei2nfzriQ0yxVuMrHkhsj+N2eGpWe0KPpg3aVK1HDKYhUMAAsChlXqsUXrgkcNss+EPAvyJYjrXj8+DAKReDMwAAroS0FkAtsO8ziZ61bCyxy/5/N33xb8X/xdbOghAANJBWVxrUTrkyJOpseFa0dr7yNglBEAGRcwBAnoSCJgA/FIEg2YZhj1u8ScfOj9vQgQ8bk8IgMeAdxs4sFdjPPywTfYwmbuCAMikiblAQC8CgRWAn8ogfuH8qCC/4IKv3538rV6V0StbCIB39TK6Djj8byEjNk78OhaRvRsIgGyimA8E9CEQdAFwKmESRcWfzmsXzXj/bpwN8KY3IQAecO3Wf1ixFYk+Zxg03IPpm6aEAHhFFvOCgPoEMkEAtlbBMIw3zNKOpy989tkq9SujV4YQAMn1cm7lo9Cqt2T91r+j9CAAkguH6UBAIwKZJABNX3iIvom2LT56+aRJqzQqk/KpQgAklsg5+Jvmqo/EKf+eEqfd7lQQAK8JY34QUJdApglAkwSEaH5B25JDv37llXXqVkavzCAAkurV4/TTi2jximlxon0lTdniNBCA5CiHxO8w+dnZlBuJUMg0yLJtaojFqaahgaJxUS2FtqxQiApErlnhEJki75hl0ZZolGobGpvyxgYCWwlkogD8dCbg6y69Swd/MH78ZnRD6gQgAKkzbOrLbgcNfk38iT5OznSJZ4EAtMzIOYC2LSigkvy8poPp9rbKLfW0rrqaGn0WgexwmHYuKqRCcfDf3hYXB/+NNbW0obZWPHAFIpD40xH8iEwVAKeyQupfXfjpByeJ/4kPQ4qtDgFIEaAzvHTQoCsoatwlYaqkp4AA7BiV8026S0lrcg6siba4+Ja9YnNl0xkBP7ainBzq2Kp4h5KybU7O2YBlmyqazgxgy2wCmSwATuXFbdWX/jDjw/szuwtSXz0EIEWG3Q4c1NMIh76xLGv7X99SnH9HwyEA2yfjnD7vWlJCESEByW7Ot+olGzc1nW5P59YqN7fp4M/Z6kWOTq74SYBDLXixmS4Apmk2hLOo37xp0+YFr7rpWxEEIEXW3Q8e9L5lG4enOA17OASgOTI3B/+tszjXAyxYvyFtp9jdHPy35rqxto7WVOGOKPaHJkADMl0AnFKKiwLfW/zx9CMDVNa0LwUCkALybocOG2HHom+kMIXroRCAX6NL5eC/dabVlVW0qa7OdU2SHZjKwd/Zh3PGwpEV1S5iTHb9iEudAATgR4ZmKHzMoo+nvJ060cycAQKQQt27HzToY4uMQ1KYwvVQCMAv6GQc/J3Z6hqd0+sbXdckmYGpHvy37mNNVTVtFBcFYstMAhCAn+pu0owln0w/ODO7IPVVQwBcMtxjwBGH1BmNH7scnvIwCMCPCGUd/J25nEuK56xZ69nPALIO/k6uVfX1tLwCd0Kl/EHSdAIIwC+Fs4zwwUs/nTJD01L6mjYEwCX+HocMeTxu2ee4HJ7yMAiA3IP/1oLMX7fek1PrMg/+Tq7OBYuLN3h7tiLlJsUEnhGAAPyC1iTz0UUzpv3ZM9gBnhgC4KK4fxg7NufDd6avscniXcLtYl87GpLpAiDzm/+2jOetXSf9NjvZB38n37rGxqa7AbBlJgEIwDZ1N6liv13atS8vL2/MzG5wv2oIgAt2exx25GF1WxqmuBgqbUgmC4BXB3/n1rq5zk8A0qpE5MXB30nPeYjRis34CUBiqbSaCgLw63KFc7MHL5j67odaFVGBZCEALopQOmDQLeJ1fNe7GCptSKYKgHN/f2kb3n3+yUJ3Hga0VDxoR9bm1cHfyW9VZSVV1G2RlSrm0YwABODXBYtEIjfN//D9sZqV0fd0IQAuStDtoCHviSdRDXMxVNqQTBQAp1lLd2rT9Fx/Lzbnojrn4joZm5cHf+fphc5tgM4/sWUmAQjAb+pu0rviboCjMrMb3K8aAuCCXfeDhiy3yO7kYqi0IZkoACV5edShuEgaw20nknkLoJcHfydn3ALoSQtoNSkE4DflMsylSz6d1lWrIiqQLASAWYT+/fvnbcoqqBHDfGWXiQLQo+1OST3fn1nSpov+nCvqZTxYx+uDf7U4Q7EMt/9xSxy4eAhAs5Ja0U7tClaUl+N3MUa3+3oQY+SpTGiPY07qFN+8cbnfCWWaADi//fdq11Y6dufgv1RcTV8fi6U8t9cH/xrxWuDlFRV4D0DKldJ/AghA8xrG2hZ3XD5p0ir9q5u+FUAAmKx3HTSojxk1vmcOkx6eaQJQIF6Vu6t4w5/Mrengv0kc/KM4+Mvkirm8JwABaM44K8fcDS8H4vUeBIDHi/oMOHTfesOcyRwmPTzTBKBQvDa3S+tW0jjim780lJjIBwIQgObQc2yr/5zPPvrSh3Jou0sIALN03Q8c2t8yrS+Yw6SHZ5oA5GVlNd3+J2PDN38ZFDGHnwQgAM3pm5a536LPp/n+5czPvuDuGwLAJAYBaA7ssfvvpPy8XCZJXrhpGLRb+51TvvISB38ed0SrSQACAAGQ0ZkQACZFCIA/AuDstYu4BqBQXAvgdnPum/8Bv/m7xYdxChGAAEAAZLQjBIBJEQLgnwDkZUXEzwBtmBX7MRwHf1fYMEhRAhAACICM1oQAMClCAPwTAGfP7YsKqU1+PqtqOPizcCFYAwIQAAiAjDaFADApQgD8FQCnYTu2akXFuTlJVc55uM8y8Xx/3OefFC4EaUIAAgABkNGqEAAmRQiAvwKwde8l+XnUrqCAQqa5wwo6b8xbU1Ul5fW+eMgP84OCcE8JQAAgADIaDALApAgBUEMAnCxC4s6AotxcKsjOoqxQWLygkSgWt6gu2tj0utwGCU/3c/aDgz/zQ4JwzwlAACAAMpoMAsCkCAFQRwCYpXMVjoO/K2wY5DEBCAAEQEaLQQCYFCEAmSMAOPgzPxwITxsBCAAEQEazQQCYFCEAmSEAOPgzPxgITysBCAAEQEbDQQCYFCEAwRcAHPyZHwqEp50ABAACIKPpIABMihCAYAsADv7MDwTCfSEAAYAAyGg8CACTIgQguAKAgz/zw4Bw3whAACAAMpoPAsCkCAEIpgDg4M/8ICDcVwIQAAiAjAaEADApQgCCJwA4+DM/BAj3nQAEAAIgowkhAEyKEIBgCQAO/swPAMKVIAABgADIaEQIAJMiBCA4AoCDP7P5Ea4MAQgABEBGM0IAmBQhAMEQAOdlQs5Lhbz6ANQ0NNLyigqybJvZYQgHgcQEIAAQgMRdkjjCq79/ifesaQQEQH8BwMFf0w8f0v6ZAAQAAiDj4wABYFKEAOgtADj4Mxse4UoSgABAAGQ0JgSASRECoK8A4ODPbHaEK0sAAgABkNGcEAAmRQiAngKAgz+z0RGuNAEIAARARoNCAJgUIQD6CQAO/swmR7jyBCAAEAAZTQoBYFKEAOglADj4Mxsc4VoQgABAAGQ0KgSASRECoI8A4ODPbG6Ea0MAAgABkNGsEAAmRQiAHgKAgz+zsRGuFQEIAARARsNCAJgUIQDqCwAO/symRrh2BCAAEAAZTQsBYFKEAKgtADj4Mxsa4VoSgABAAGQ0LgSASRECoK4A4ODPbGaEa0sAAgABkNG8EAAmRQiAmgKAgz+zkRGuNQEIAARARgNDAJgUIQDqCQAO/swmRrj2BCAAEAAZTQwBYFKEAKglADj4MxsY4YEgAAGAAMhoZAgAkyIEQB0BwMGf2bwIDwwBCAAEQEYzQwCYFCEAaggADv7MxkV4oAhAACAAMhoaAsCkCAHwXwBw8Gc2LcIDRwACAAGQ0dQQACZFCIC/AlCYk02dW7cmrxq3pqGRlldUkGXbzM5AOAikjwAEAAIgo9u8+jsqIzcl54AA+CcAYdOkHm13opD4pxcbDv5eUMWcXhCAAEAAZPQVBIBJEQLgnwC0LyqiNvl5zIolF46Df3KcEKUGAQgABEBGJ0IAmBQhAP4IgNOovXdu58m3fxz8mR8ChPtOAAIAAZDRhBAAJkUIgD8CkBMJU/eddmJWK3E4Dv6JGSFCPQIQAAiAjK6EADApQgD8EQDn4r8u4uI/mRsO/jJpYq50EoAAQABk9BsEgEkRAhAMAcDBn9n4CFeKAAQAAiCjISEATIoQAH8EQOZPADj4M5se4coRgABAAGQ0JQSASREC4I8AyLoIEAd/ZsMjXEkCEAAIgIzGhAAwKUIA/BEAZ6/tiwrFbYD5zIr9Eo6Dv2t0GKgYAQgABEBGS0IAmBQhAP4JQCoPAsLBn9noCFeaAAQAAiCjQSEATIoQAP8EwNmzm0cB4+DPbHKEK08AAgABkNGkEAAmRQiAvwLg7L0oJ4c6tiom00jcvpu3bKFVlVVk49n+zE5HuMoEIAAQABn9mfgvqIy9BGgOCID/AuBkkBUOUbvCwiYZ2F4TN8RitK66hqrq6wPUfVgKCPxIAAIAAZDxWYAAMClCANQQgK1ZONcF5GVlUXY4TM4JgWjcorrGRnIEABsIBJUABAACIKO3IQBMihAAtQSAWT6Eg0AgCEAAIAAyGhkCwKQIAYAAMFsG4SAgnQAEAAIgo6kgAEyKEAAIALNlEA4C0glAACAAMpoKAsCkCAGAADBbBuEgIJ0ABAACIKOpIABMihAACACzZRAOAtIJQAAgADKaCgLApAgBgAAwWwbhICCdAAQAAiCjqSAATIoQAAgAs2UQDgLSCUAAIAAymgoCwKQIAYAAMFsG4SAgnQAEAAIgo6kgAEyKEAAIALNlEA4C0glAACAAMpoKAsCkCAGAADBbBuEgIJ0ABAACIKOpIABMihAACACzZRAOAtIJQAAgADKaCgLApAgBgAAwWwbhICCdAAQAAiCjqSAATIoQAAgAs2UQDgLSCUAAIAAymgoCwKQIAYAAMFsG4SAgnQAEAAIgo6kgAEyKEAAIALNlEA4C0glAACAAMpoKAsCkCAGAADBbBuEgIJ0ABAACIKOpIABMihAACACzZRAOAtIJQAAgADKaCgLApAgBgAAwWwbhICCdAAQAAiCjqSAATIoQAAgAs2UQDgLSCUAAIAAymgoCwKQIAYAAMFsG4SAgnQAEAAIgo6kgAEyKEAAIALNlEA4C0glAACAAMpoKAsCkCAGAADBbBuEgIJ0ABAACIKOpIABMihAACACzZRAOAtIJQAAgADKaCgLApAgBgAAwWwbhICCdAAQAAiCjqSAATIoQAAgAs2UQDgLSCUAAIAAymgoCwKQIAYAAMFsG4SAgnQAEAAIgo6kgAEyKEAAIALNlEA4C0glAACAAMpoKAsCkCAGAADBbBuEgIJ0ABAACIKOpIABMihAACACzZRAOAtIJQAAgADKaCgLApAgBgAAwWwbhICCdAAQAAiCjqSAATIoQAAgAs2UQDgLSCUAAIAAymgoCwKQIAYAAMFsG4SAgnQAEAAIgo6kgAEyKEAAIALNlEA4C0glAACAAMpoKAsCkCAFoDuzR++6ggvw8JkmEgwAIuCVQU1tH5116ldvhUsdVV2wk27akzulmMtMy91v0+bSZbsZm6hgIALPyEIDmwO6+9QZq364dkyTCQQAE3BJYtWYt/e2GcW6HSx0HAZCKM62TQQCYuCEAzYH97ZLzae89d2eSRDgIgIBbAl99/R3948F/uR0udRwEQCrOtE4GAWDihgA0B3bEYYPoD6eVMUkiHARAwC2B/3tmAk2Z/rHb4VLHQQCk4kzrZBAAJm4IQHNgebm5dM/tY6gwP59JE+EgAAJcAs4FgJddM4acf6qwQQBUqIK7HCAATG4QgO0DGzZkII0+fRSTJsJBAAS4BP799PM09cNPucM8i4cAeIbW84khAEzEEIAdA/t/Z4yiwwcPZBJFOAiAQLIE3v/gY3ry2QnJhqclDgKQFsye7AQCwMQKAdgxMMMwaOTRR9BJxw+ncCjEJItwEACBHRGIxeM08dXJ9MY774tb7mylQEEAlCoHKxkIAAsXEQQgMbB2bXeiEUceTvvtvSe1alWceAAiQAAEtkugorKSZs76punAv37DRiUpQQCULEtSSUEAksL0SxAEIHlgzhmBosICKi4solDYTH4gIkEgwwnEYxZVVldRZVW18iQgAMqXaIcJQgCYtYMAMIEhHARAINAEIAD6lhcCwKwdBIAJDOEgAAKBJgAB0Le8EABm7SAATGAIBwEQCDQBCIC+5YUAMGsHAWACQzgIgECgCUAA9C0vBIBZOwgAExjCQQAEAk0AAqBveSEAzNpBAJjAEA4CIBBoAhAAfcsLAWDWDgLABIZwEACBQBOAAOhbXggAs3YQACYwhIMACASaAARA3/JCAJi1gwAwgSEcBEAg0AQgAPqWFwLArB0EgAkM4SAAAoEmAAHQt7wQAGbtIABMYAgHARAINAEIgL7lhQAwawcBYAJDOAiAQKAJQAD0LS8EgFk7CAATGMJBAAQCTQACoG95IQDM2kEAmMAQDgIgEGgCEAB9ywsBYNYOAsAEhnAQAIFAE4AA6FteCACzdhAAJjCEgwAIBJoABEDf8kIAmLWDADCBIRwEQCDQBCAA+pYXAsCsHQSACQzhIAACgSYAAdC3vBAAZu0gAExgCAcBEAg0AQiAvuWFADBrBwFgAkM4CIBAoAlAAPQtLwSAWTsIABMYwkEABAJNAAKgb3khAMzaQQCYwBAOAiAQaAIQAH3LCwFg1g4CwASGcBAAgUATgADoW14IALN2EAAmMISDAAgEmgAEQN/yQgCYtYMAMIEhHARAINAEIAD6lhcCwKwdBIAJDOEgAAKBJgAB0Le8EABm7SAATGAIBwEQCDQBCIC+5YUAMGsHAWACQzgIgECgCUAA9C0vBIBZOwgAExjCQQAEAk0AAqBveSEAzNpBAJjAEA4CIBBoAhAAfcsLAWDWDgLABIZwEACBQBOAAOhbXggAs3YQACYwhIMACASaAARA3/JCAJi1gwAwgSEcBEAg0AQgAPqWFwLArB0EIDlgBQX51HeP3anDLu2pUPzvkBlKbqDHUbV1tbRp02b6/vu5tGr1Go/3Jnf6cDhMPXt2o+7du1FxUSFlRbLk7sDlbI3RRqqsqqaFCxfTwgWLKBaPu5zJn2EdO3SgPnv0ppLWrSg/L9+fJH6z17gVp5rqGtGja+nb776nmppaJfLaXhIQAGVLkzAxCEBCRL8OgAC0DCw/P4+GH3MkHTTgAAqFTCbd9IYvXvIDvfrqZFq6bHl6d8zcm2EYdPBBB9LRRx1OReLAr/JWVVVFb78zhT6d8V+ybVvlVGnXXTvTicePoNLSrkrnGY9bNEPwnPzWu1RXV6dcrhAA5UqSdEIQgKRR/RgIAdgxsA4d2tO555xNJSWtmVT9C3f+uJZPfIVmfPY//5JoYc+RSITOPGMU9durr5L57Sipr2Z/S888O4Gi0aiSeTuCWnbKCcpL6rbwNm6qoMceH09r1qxViikEQKlysJKBALBwQQB2hKuoqIiuuOxCatWqmEnU/3Dnm+pTTz1PX371tf/JbJOB883/rDN/R/vu00+pvJJNZvbsb+jJ/zyn3JmAfv32pNFn/54cvrptzhmWu+55iCorq5RJHQKgTCnYiej3CWAvUe4AnAHYPs/zzh1Nu/fpLRd2Gmerr2+gcbf9g6rF766qbAcesB/9/rRTVEnHVR7PPvsi/feLL12N9WJQYWEB3XD9lZSdpcb1E27W+O13c7n11ZcAACAASURBVOjxJ/7jZqgnYyAAnmBNy6QQACZmCEBzYKWlu9Kll5zPJKle+NQPPqLXXpusRGKGadIYcaBqLS5M03mrEKetbx53J1mKXA9w4vHH0pAhA3VG2pT7vff/k374YZkS64AAKFEGV0lAAJjYIADNgZ180kgadOjBTJLqhTunVcfcdLsSp6y7dyulSy4+Tz1ILjK674FHaMmSpS5Gyh3inPIfe+PVWv5M9VsS06d/TC+/+oZcQC5ngwC4BKfAMAgAswgQgObA/nr5xdS5c0cmSTXDb7rlDnGbYIXvyQ07fAgdd+zRvuchI4FJr79FU6ZOlzFVSnO0ERen3njDVSnNocrgZcuX0933PKxEOhAAJcrgKgkIABMbBKA5sJtvuq7pvvQgbKp8Wz3xxONoyKBDgoCUPvjwE3rlldd9X0tpaVfxU9Wffc9DRgLO2aobx94mY6qU54AApIzQtwkgAEz0EIDmwG6/dQzl5eUySaoZ/vAj/6b58xf4ntyoU08S9/4f4HseMhJwngkw4cWXZUyV0hy9evWkC8//Y0pzqDK4rm4LXXPdTUqkAwFQogyukoAAMLFBACAAzJZxFQ4BcIWtxUEQAPlMnRkhAN5wTcesEAAmZQgABIDZMq7CIQCusEEA5GNLOCMEICEiZQMgAMzSQAAgAMyWcRUOAXCFDQIgH1vCGSEACREpGwABYJYGAgABYLaMq3AIgCtsEAD52BLOCAFIiEjZAAgAszQQAAgAs2VchUMAXGGDAMjHlnBGCEBCRMoGQACYpYEAQACYLeMqHALgChsEQD62hDNCABIiUjYAAsAsDQQAAsBsGVfhEABX2CAA8rElnBECkBCRsgEQAGZpIAAQAGbLuAqHALjCBgGQjy3hjBCAhIiUDYAAMEsDAYAAMFvGVTgEwBU2CIB8bAlnhAAkRKRsAASAWRoIAASA2TKuwiEArrBBAORjSzgjBCAhImUDIADM0kAAIADMlnEVDgFwhQ0CIB9bwhkhAAkRKRsAAWCWBgIAAWC2jKtwCIArbBAA+dgSzggBSIhI2QAIALM0EAAIALNlXIVDAFxhgwDIx5ZwRghAQkTKBkAAmKWBAEAAmC3jKhwC4AobBEA+toQzQgASIlI2AALALA0EAALAbBlX4RAAV9ggAPKxJZwRApAQkbIBEABmaSAAEABmy7gKhwC4wgYBkI8t4YwQgISIlA2AADBLAwFoDmzsDVdR65LWTJJqht91z0O0fPkK35M7fuRwOmzoIN/zkJHAlKnTadLrb8mYKqU5unTuTFdcfmFKc6gyeOOmCrr5ljuUSAcCoEQZXCUBAWBigwA0B3bpJX+m0tKuTJJqht8w5laqqqr2Pbkhgw6hE088zvc8ZCTw0suT6MOPPpUxVUpzFBUV0S03XZvSHKoMXrR4CT3w4KNKpAMBUKIMrpKAADCxQQCaAzv6qGF0zNHDmCTVC1+1eg3dced9SiTWvv3OdM1VlymRS6pJ3Hb7PbR23bpUp5Ey/pqrLqf27dtJmcvPSd586z16590pfqbw874hAEqUwVUSEAAmNghAc2Bt2+5E1159OZmmyaSpVvhrk96kqdM+VCapv15+MXXu3FGZfNwksnTZcrrn3ofdDPVkzOGHDaaRxx3jydzpmjQet+i2v99NGzZsTNcuW9wPBECJMrhKAgLAxAYB2D6wslNOoIGHDGDSVCfc+U31dvFHNRqNKZNUr57d6YLzzyHD0PNjatk2PfTwY7Ro0RJlmGZlZTXJauvWrZTJiZuI83OK87OKKhsEQJVK8PPQ8y8Lf53SRkAAto8yEgnTxRedR7t26SyNdbomikaj4vfUx2jZ8uXp2mXS+9H55xWVTlNvC7xTp13oLxefT1lZkaTroErg8hUrm377b2xsVCUlggAoUwp2IhAAJjIIwI6B5eRk01ln/I722KMPk6p/4TU1tfTk+GdooULfUn9Lw7kg8PgTjiVTkzMBtvjm//Y7U5p+o3b+t4pb165d6I+jz6SiokIV09tuTnPnLaD/PPUc1dVtUSpnCIBS5WAlAwFg4SKCALQMzDlI7bf/vnTksKHkXBug6la/pZ5m/PcLeu/dqVRbV6dqmj/n5VwLMOKYo2i33j3IUPRaC9uyaI44SL355rvkfFNVfcvLy6OjjjiMBgzYnxx5VXVbt35DU59+MXMWOT+rqLZBAFSrSPL5QACSZ9UUCQFIHphzJXunjrtQYUE+hcLh5Ad6GOl849+4aRMtWfwDxeJxD/fkzdQFgmVp167UqlURZWercdBqaGigisrKJqa1terL1G8rEw6FqFu3rlRSUkIOXxW2eCxG1aJXV6xcSWvWqHEHxY64QABU6Bh3OUAAmNwgAExgCAcBEAg0AQiAvuWFADBrBwFgAkM4CIBAoAlAAPQtLwSAWTsIABMYwkEABAJNAAKgb3khAMzaQQCYwBAOAiAQaAIQAH3LCwFg1g4CwASGcBAAgUATgADoW14IALN2EAAmMISDAAgEmgAEQN/yQgCYtYMAMIEhHARAINAEIAD6lhcCwKwdBIAJDOEgAAKBJgAB0Le8EABm7SAATGAIBwEQCDQBCIC+5YUAMGsHAWACQzgIgECgCUAA9C0vBIBZOwgAExjCQQAEAk0AAqBveSEAzNpBAJjAEA4CIBBoAhAAfcsLAWDWDgLABIZwEACBQBOAAOhbXggAs3YQACYwhIMACASaAARA3/JCAJi1gwAwgSEcBEAg0AQgAPqWFwLArB0EgAkM4SAAAoEmAAHQt7wQAGbtIABMYAgHARAINAEIgL7lhQAwawcBYAJDOAiAQKAJQAD0LS8EgFk7CAATGMJBAAQCTQACoG95IQDM2kEAmMAQDgIgEGgCEAB9ywsBYNYOAsAEhnAQAIFAE4AA6FteCACzdhAAJjCEgwAIBJoABEDf8kIAmLWDADCBIRwEQCDQBCAA+pYXAsCsHQSACQzhIAACgSYAAdC3vBAAZu0gAExgCAcBEAg0AQiAvuWFADBrBwFgAkM4CIBAoAlAAPQtLwSAWTsIABMYwkEABAJNAAKgb3khAMzaQQCYwBAOAiAQaAIQAH3LCwFg1g4CwASGcBAAgUATgADoW14IALN2EAAmMISDAAgEmgAEQN/yQgCYtYMAMIEhHARAINAEIAD6lhcCwKwdBIAJDOEgAAKBJgAB0Le8EABm7SAATGAIBwEQCDQBCIC+5YUAMGsHAUgeWOvWrahDh/ZUWFBAoZCZ/EAPI2tr62jTpgpauXIVWbbt4Z68mTorK0K77tqFiouLKCsS8WYnzFkbo1GqrKyipUuXUWNjlDna/3DTMKhjp12opHVrys/P8z8hkUE8blF1TQ2tXrWaKjZXKpHTjpKAAChdnhaTgwAwawcBaBmYIf6Y7rXnHnTEsCHUuXMnJt30hVdVVdGnM/5LU6d+SA2Njenbscs97dyuHR1z9DDq23d3ikTCLmfxdlhUiMA3382ht956j9atW+/tziTMnp2VRUOHDqJDDj6AioqKJMzozRTLli+nd9/9gL759jtvdpDirBCAFAH6OBwCwIQPAdgxMOfb6Zln/K5JAHTZnLMBTzzxFK1cvVrZlAceMoBOPmkkmaYaZ1ESgXK+vb708iT65NPPEoX69u87duhAfzrnLGpd0tq3HLg7nj37G3rmuReVO8sCAeBWUp14CACzFhCA7QMLh0J0/vnnUI/upUyi/ofXb6mne+5/mNauVe9b69DBA+mEE471H5KLDF5+9Q2aPv1jFyO9HdK+/c502V8uoJycbG935MHsCxcupn/+64mmnwhU2SAAqlSCnwcEgMkMArB9YMcfP4IOG3Iok6Y64c4p6zvuvI9i8bgySZWW7kp/ueg8MjT55v9bcLZl0b0PPCKuDViuDNNwOExXX3kptW27kzI5cROZMnU6TXr9Le4wz+IhAJ6h9XxiCAATMQSgObAScRr1umv/Ss5ZAJ23iS+9Rh99PEOZJVx6yZ+ptLSrMvm4SWTR4iX0wIOPuhnqyZghgw6hE088zpO50zVpLBajcbfdTRUVFenaZYv7gQAoUQZXSUAAmNggAM2BHXXk4TT8mCOYJNULX7lyNd151/1KJOZc9HftNZcrkUuqSdx62120bv2GVKeRMv4q8e1/F3Fniu7b5Mnv0LvvT1NiGRAAJcrgKgkIABMbBKA5sIvFaWodf/vfXumvv3EcVVfXMLtCfvigQw9uuvAvCJsqZ1YKCwto3M3XBwEpLVokzqw8pMaZFQiAvi0FAWDWDgLQHNjYG67S6mrqlkp+1z0P0fLlK5hdIT/8+JHD6TBxi1oQNlV+s+7SuTNdcfmFQUBKG8XdKzffcocSa4EAKFEGV0lAAJjYIADNgd1+6xjKy8tlklQz/OF/PkHzFyz0PblRp55EBx90gO95yEjAed7ChBdfljFVSnP06tWTLjz/jynNocrgurotdM11NymRDgRAiTK4SgICwMQGAQi4ADzyb5o/fwGzK+SHQwDkM4UAyGfqzAgB8IZrOmaFADApQwAgAMyWcRUOAXCFrcVBEAD5TCEA3jBN16wQACZpCAAEgNkyrsIhAK6wQQDkY0s4I84AJESkbAAEgFkaCAAEgNkyrsIhAK6wQQDkY0s4IwQgISJlAyAAzNJAACAAzJZxFQ4BcIUNAiAfW8IZIQAJESkbAAFglgYCAAFgtoyrcAiAK2wQAPnYEs4IAUiISNkACACzNBAACACzZVyFQwBcYYMAyMeWcEYIQEJEygZAAJilgQBAAJgt4yocAuAKGwRAPraEM0IAEiJSNgACwCwNBAACwGwZV+EQAFfYIADysSWcEQKQEJGyARAAZmkgABAAZsu4CocAuMIGAZCPLeGMEICEiJQNgAAwSwMBgAAwW8ZVOATAFTYIgHxsCWeEACREpGwABIBZGggABIDZMq7CIQCusEEA5GNLOCMEICEiZQMgAMzSQAAgAMyWcRUOAXCFDQIgH1vCGSEACREpGwABYJYGAgABYLaMq3AIgCtsEAD52BLOCAFIiEjZAAgAszQQAAgAs2VchUMAXGGDAMjHlnBGCEBCRMoGQACYpYEAQACYLeMqHALgChsEQD62hDNCABIiUjYAAsAsDQSgObBbbrqWioqKmCTVDL/vgX/RkiU/+J7cSSceR4MHHeJ7HjISmP7hJ/TyK6/LmCqlObqVdqW/XPLnlOZQZXBVVRXdMOY2JdKBAChRBldJQACY2CAAzYH99YqLqXOnjkySaobfMu5O2rBxk+/JHXH4EDr22KN9z0NGAq+/8Ta9P+UDGVOlNMdOO5XQDdddmdIcqgxevnwl3XXPg0qkAwFQogyukoAAMLFBAJoDKzv5BBo4cACTpHrh1dU1dOOYW8mybd+T69mzO110wZ98z0NGAg8+9CgtXLRExlQpzWEaBt001jlbVZjSPCoM/vCjT+mllyepkApBAJQog6skIABMbBCA5sB69OhGF194LpOkeuEq/VE1TZNuGnO19j+tVFZV05ibbifbspQoeFBkVRWpcooKAVCitV0lAQFgYoMAbB/YhRecQ7169mDSVCc8Go3SuNvuos2bK5VJauAhA6jslBOUycdNIi9MeJlmfPZfN0M9GVMsvv1ff93fKCsry5P50zHpggWL6KF/Pp6OXSW1DwhAUpiUDIIAMMsCAdg+sJKS1nTFZRdRQUE+k6ga4S9MmCgOVF+okcxPWTinrM/541m0xx59lMor2WTmzJlPjz4xXplv/1vzPmD//nT678uSXYZScbV1dXTPPQ8pcZ3KVjAQAKVahJUMBICFiwgCsGNgXTp3pj+dc6ZWp62dU9OTXn+Lpn7wEbMT0hOek5NNo/9wBu3Wu2d6dihpL3Pnzqcn//Ms1dc3SJpR7jSHDR1Exx13DDmSpcvmXPn/+BNP07Lly5VKGQKgVDlYyejT/axleRcMAWiZrXOKdeTI4bTvvnsr/8d11apV9PKrk8k5pary5lwPMHTIoXTEsCGUm5urcqpUV7eF3nt/Gk2b/rFy3/x/C66XuNDyhBOPpY4dOijN1Lko9cuZX9FrQlQdCVBtgwCoVpHk84EAJM+qKRICkBywNuIngb577kGdOnagwoJCCoXUaLXqmlraVLGZvv9uLv3ww1IlrvhPjihRTnY27d6nN3Xv3o2KWxVTdlY42aGexjU0xqhSXDuxcPFimvP9PKpvUPNb//YgOGcASku7Up/de5PTswX5eZ6ySnbyWNyimpoaWrFyNX37zXe0cVNFskPTHgcBSDtyaTtU46+ytOV4PxEEwHvG2AMIgIA+BCAA+tTqt5lCAJi1gwAwgSEcBEAg0AQgAPqWFwLArB0EgAkM4SAAAoEmAAHQt7wQAGbtIABMYAgHARAINAEIgL7lhQAwawcBYAJDOAiAQKAJQAD0LS8EgFk7CAATGMJBAAQCTQACoG95IQDM2kEAmMAQDgIgEGgCEAB9ywsBYNYOAsAEhnAQAIFAE4AA6FteCACzdhAAJjCEgwAIBJoABEDf8kIAmLWDADCBIRwEQCDQBCAA+pYXAsCsHQSACQzhIAACgSYAAdC3vBAAZu0gAExgCAcBEAg0AQiAvuWFADBrBwFgAkM4CIBAoAlAAPQtLwSAWTsIABMYwkEABAJNAAKgb3khAMzaQQCYwBAOAiAQaAIQAH3LCwFg1g4CwASGcBAAgUATgADoW14IALN2EAAmMISDAAgEmgAEQN/yQgCYtYMAMIEhHARAINAEIAD6lhcCwKwdBIAJDOEgAAKBJgAB0Le8EABm7SAATGAIBwEQCDQBCIC+5YUAMGsHAWACQzgIgECgCUAA9C0vBIBZOwgAExjCQQAEAk0AAqBveSEAzNpBAJjAEA4CIBBoAhAAfcsLAWDWDgLABIZwEACBQBOAAOhbXggAs3YQACYwhIMACASaAARA3/JCAJi163nwEXvH7MZZzGHSww3DpMLWbaTPiwlBAARAgENAFQEIG1n7LPj0va84uWd6LASA2QHdjxrZw6qqXMAcJj0cAiAdKSYEARBwQUAVAQgZrXss/PTVRS6WkLFDIADM0u+///D2G8K1q5nDpIdDAKQjxYQgAAIuCKgiAIXtS3b++pVX1rlYQsYOgQBwS19WFuq+akOtZVnZ3KEy4yEAMmliLhAAAbcElBAA06hfskvbAiovj7tdRyaOgwC4qHqPgwZ/J7psdxdDpQ2BAEhDiYlAAARSIKCCAIgD2TeLZ0zfK4VlZORQCICLspceNPhFMazMxVBpQyAA0lBiIhAAgRQIqCAAZJoTlnwy7XcpLCMjh0IAXJS9+4DBF1sGPeBiqLQhEABpKDERCIBACgRUEIBQKHzhwo+n/DOFZWTkUAiAi7L3O2ToHlWW9a2LodKGQACkocREIAACKRBQQQAilN1n/ox356awjIwcCgFwWfbSg4fMIdvezeXwlIfpIgBhMqhIrDYk/qnCVk021Yv/6ryZAmXrfJtyImqsoj5KtKnWEB8HNfJxnUU4RHZ22PVwmQMNyyJqEFcaOf9UfFNAAOYsmTHd12uyFC/RDtNT46+yhvR6Dhp2fSwavcWv1FUWgGJxsB9qhGlvcdhvT6ZfiHa43xohAN/aFk2nKC0h9f/AOgsRxyY6di+Ljuobp7272BRSDGtcYJy11KR3vzPpja9NimlyLbbVJp+s7m3I6lBMlCUgK7YZVQ1krNxM4QXrhRDEFMvux3T8FoCISdfO/2T67UrCUTwpCIDLAvU45qRO9uaNi8TfvSyXU6Q0TFUBGExhOsnIIl/vkWSQ/Z8dp2eoQfxH3a13e5tuOzlGnUv0+Iq9dINB174cpgVrFf7zEhaS0r8zWV1aq1v4bTOLWRSavZJCizcql6+fAmCaZkNDttF9xdSpK5UDo0FCCn9C1afX9eDB/zZs+n9+ZKqiAJxgROhoUuS8NKMoy8RZgHvsBiV/Gti3i0X3nhan3Cw9Dv5bsW9pNOiyF8L05VL1/sTY4itjbEgPslvlMbpEjdDQnLUU+tb355D9CoavAkDmo4tmTPuzGtXRLwv1Pp0aMXQeC0xVld/5cRZANQE4UHzzHy2++eu6zaI4PSokQKVt5yKbnj43Sq1yVcoq+Vwq6gw647Ewra9W689M9JBuZO/iXJmi5xb+fCmZyyqUSd4vAXC+/edHC/p8/d/XlygDQ7NE1PpkagbPSbfrQYffZlDsmnSnrpIAOKf7bzZyyfntX+ftASEA3wsRUGUbe3ychu+lTj5uuLw+26RbJqlxYZ2Tv9WhiGIDu7lZijpj6mOU9dYcUuVCC78EgMLhW5Z8NOVGdQqjXyZ6/8VWgHf//v3zNmUVOLcElqYzHZUEYKD49n+Gxt/+t9bNOfg7EqDC1jrPprcuj5Jzxb/Om3Nx4DH3RmizOBugwhYb1J2snQtVSCWlHMJfLCNzyaaU5pA12A8BsE1zUWyXnfZcUV6+RdY6MnEeNT6VmpPvdfjh+8frYh+n86cAlQTgAiOb9hJX/Ou+OddYX2HXKXFB4Ahxxf+Y49W86ptb5zGvhumtbxS4bUHcStF4fF/S3qpEAcyVlRT+VI0z3+kWANFJUcOMDFr4yfufcXsR8b8mAAGQ1BHpfjqgSgJwE+XSzkYwWulmu55WKXBr4PlD4zR6oN6n/7d+tP79UYge/cB/QbSLcyl6ZG9Jn3h/p3FuD4y8I34GUGBLtwDgqX/yih6Mv9ryeKQ0U48Bh98VN2JXpDRJkoNVEoC7xO//BZr//r8V+33iXoC54hkBfm9XDY/Ryf39z0MGh5dmmnTHm/5fB2C3K6Do4B4yluT7HIZ4JkBkkq8PI/2ZQToFwAzTnYs+mn6V7wUISAIQALmFNHocMuSxuGWfI3fa5rOpJAC3CwFoHRQBENcAzFXgQsBrRsTpxH2DcQbglS9DdPtk/88AOL/9O9cABGEzahsp8ub3SiwlbQJghx5f8tnU88Si9bonVokqbT8JCID84hi9Bg0bE41Gx8if+pcZVRKAG40c2kXBJ/654X8fBMANthbHQACkIyWjsp4iijz6Ph0CELEjd8z/7H3nbisc/CW2EwRAIsxtp+o6YMjZhmE8LG48yvdiFyoJwKXiIsDdAnARoFMnCID8boUAyGdqrqmi8EeL5U/sYkYvBcA0jRrLjpy/5NP3nnGRGoYkIAAB8LBFdh00qE/YCj1txa3+snejkgD8TjwNeYh49n8QNgiA/CpCAOQzNcW7AcJfqfH0W68EQFxX/L+wnX0W3vInv3+2zggB8I7tjzOXlYV6rN50Xjwec14cVCJrdyoJwGBx8D/Nn1ciyML58zwQAOlICQIgn2l45goyF2+QP7GLGeULgLnRsI3rF3829TGRTjCuhHXBNR1DIADpoCz20XvkyMKGTZsvMOOhy2zxKJJUd6uSAHQUv//fIK4DCMIGAZBfRQiAfKaRd+aSUVUvf2IXM8oSAIPMtZZt3pPdLv+ReZMmVbtIBUOYBCAATGCphosnB0Zq8vOPicbMMw3DPkq87tvVY8lUEgCnie4w8kjfp6v/UlUIQKod3nw8BEAyU3ELYNbr34nL4dS4Hi4VARAP9akSX/HfyYrYzxTU1r41c+bMqGRamK4FAhAAH9tj2rRp4T9df+t+pm0fHLXs3ciI9QqR0dYyqUB8tFsUAyEARmFxm1Y+pv+rXZ8hfgIYGIDrACAA8jsKAiCXqbloI4W/XC530hRmq67cuNm2rRZtRBxoqk2LauJkryfDmBeh8DzLMD59fNx1XwwdOjQYj7xMgaFfQyEAfpFPcb97jvh9a5Ma1XgYuFhLT3EXwBXibgDdNwiA/ApCAOQyDU9bSOaGGrmTpjCbRVkl30x+Tp3XE6awlkwbCgHQtOKqCYDTSGMD8EhgCID8DwQEQB7TpkcAO/f/K3L631kZBEBefdM9EwQg3cQl7U81AXCWdbB4K+BZmr8VEAIgqUG3mQYCII9p+L/iLYBLlTnx17QwCIC8+qZ7JghAuolL2p+KAuA87HWsuBugrcZPBYQASGpQCIB0kEaN8wIg8e2/5Z/bpe830YQQgESE1P33EAB1a9NiZioKgJNwXyNEF5G+1wJAAOR/IHAGQA7T8MeLyVxdJWcyibNAACTCTPNUEIA0A5e1O1UFwFnf+eJiwH6aPhoYAiCrQ3+ZBwKQOlNzxWYKz/gh9Yk8mAEC4AHUNE0JAUgTaNm7UVkA8sWbAa8XPwXo+IZACIDsTiU8CTBVpHVRirwvHvzToObbISEAqRbYv/EQAP/Yp7RnlQXAWVhPcR3AX4QE6PaGAAhASm253cE4A5ACU/F7f/gDcdvfxtoUJvF2KATAW75ezg4B8JKuh3P3H1ZWHMu2N3u4i5Sn3l9cDzBaXA8gnvalzXaPeB3wfPL/m9aVw+N0Sn//85BRuIkzQ3Tnm84lov5uVtsCig3p4W8SzL2HP1tK5nK1b7EPNxitZr5fXslcGsIVIAABUKAIblIoEy8Zml9nK/8ELedFQc7bAnVptLF2Pa1R4P0jfxoUpz8NDoYAPDY9RE986L8A2EXZFD2qj5uPmy9jQrNWUGihGi/8aQGA3SvPiJSXlwejWX2ptH871eXvsn+EFN7zPsedUiveJZCncIpNqR0gfgg4WzwfwP9DQMukGsS/vsLeQjHy/xnrh+9u0e0nK+93SbXe1RPDNHWOAueBQgY1jtyTKKxALi2Rc077/0/c779M7W/+TUswjZrZr5e7ep9JUs2DIE8JQAA8xevt5P2OO1V8WU39zYLeZvnj7L3E4f+PQgKKFT4XMFOc+n9c/ASgwpafbdPbl8coO+y/jKTCQ7y3ho66K4vEdWxKbLGDS8nqWKxELttLwtgSpfDnS8lYr86jfluCZRjGyq/eKO+kLFAk1iIBCIDGDdJvxMnziIxeuiyh0DDoLPFzwJ4KngtwDrN/F6f/lypw+n9rPS89Mk6/P1DvM6tPfxqiB6eoc+7HLsmj6GE9xcdGvT994dY+swAAFpVJREFU5upKCv1vubjaX58zPzbZc76e/NLuuvwNQp6/JqDepwAVSprAXiNGvWdQfFjSAxQJ3EcIwKnibIBKtwlOEyf+J9iNihD6MY2iHJvGnxOjTq31PAuwosKgs5+IULUar63/ubbxfTpRvMdOytTaqGuk0KyVZK7S8To64+3Zk8uPUQYmEmERgACwcKkVvO+xJz8Yt42L1MoquWzC4qeAg4UIHGlEaCeffxaYLU79PyZO/av4Xbu0rU3/PD1KbTT7lXVDjUEXPB2mHzYo+CfGNCh2cFeyOvj7U4BRKw7889aSuUT81i8u5tFxs0Oh+76eNOEyHXNHzuJEGCDoS6DfCWUXUdR+UN8V/NiAfYQIDBC3DO4lLhbMSeNinJ+l37Gj9CZFFTrx3xxA20KbbhwZpwO76XGQ+GyRQTdPCpMjAaputvgJwNq9PcV7tyMSFwemazOiFhmrNosX+lSQsa6GDIXe6ueGgWnY589646V/uRmLMf4TSF/n+7/WwGWw94llR9iN9rtBWZhzbXZXIQI9bIN2MUzaWTxBoJVQhGzxX1m3OtSIK/zXi/9+K075z7DjtEmBK/6TrV//rjYd1TdO+3axqV2RTTmRZEd6G1cvTGptpUGzlhv09jch+nKpPn9W7LwsskpLyGpfRJSfRXa2hEdXOQd150AfE+eUxEV9ZrW4sLSqnswN4oBfsUW5l/mk1B0h67DZk16eltIcGOwbAX0+qb4hUnfHu114YZvsZevXidOHit/XpC5DZAYCIOCOgGka8ZgVafvN5Oc0uF/R3RqDPgoCoHmF+4085Uvx4/U+mi8D6YMACGhGwLRD/5v15oQDNEsb6W5DAAKgeTv0GznqLorHr9B8GUgfBEBANwKm/ffZr790jW5pI99fCEAANO+GvY8/dbgdsyZrvgykDwIgoBkBI8s48qtXyt/TLG2kizMAwemB/ueemxdbvcl5fL1mN4oFpwZYCQhkGgGTjMp++w9vP37saMWe8pBplUhtvTgDkBo/JUbvPXzU/9lGfLQSySAJEACBwBMQN+o8/vUbE88N/EIDvkAIQAAK3G/kSUMpbk4NwFKwBBAAAQ0IhChn0JeTn/lIg1SRYgsEIADBaA+j33Fli8iyS4OxHKwCBEBAVQLinuOlsyZPdP7W6PmMalXB+pAXBMAH6F7scr8TTrkyGqU7vJgbc4IACIDAVgJ2OPy3r1974S4Q0Z8ABED/GjatoKysrGBhvbHEsix13nISELZYBgiAwI8EbJM2NhiNpfMmTaoGE/0JQAD0r+HPK9jvhN+NjUZjYwK0JCwFBEBAJQI23TD7zYnjVEoJubgnAAFwz065kUeVlZWsqxNnAcgSDzbHBgIgAALyCIjXc2zu2r1T6av33bdZ3qyYyU8CEAA/6Xuw737DT76MDOMeD6bGlCAAAhlMwDTpklmvT9T67aMZXL7tLh0CELCOENcChBbU0Rc22XsHbGlYDgiAgE8EQjZ9ffffLuw/dOjQmE8pYLceEIAAeADV7yn7nVB2AMWNGXhLoN+VwP5BIAAETNMybXvgrDfKZwRgNVjCNgQgAAFth32PPfnBuG1cFNDlYVkgAAJpIhC27ftnvvnSpWnaHXaTRgIQgDTCTueuelx8cXb+D+s+JSu+bzr3i32BAAgEh4B40s8Xdd06DFz44IMNwVkVVrKVAAQgwL0wpKysR6W4HsAiuzjAy8TSQAAEPCDgXPUft7L6fzP5ucUeTI8pFSAAAVCgCF6msN9JZadEo8YEXA/gJWXMDQIBIyB+96eIfcrsl8tfCdjKsJxtCEAAMqAd9j7+lAvsGD2cAUvFEkEABCQQCBFd9uXkifdJmApTKEwAAqBwcWSm1u+4k28ny7ha5pyYCwRAIHgEwpHwuJmvvnBD8FaGFf2WAAQgc3rC2HvEyf+yycA7vDOn5lgpCPAI2PQv8ajfC8QgvOmPR07LaAiAlmVznbQh3hcwBu8LcM0PA0EguARMemD26xOd2/1w8A9ulX+1MghAhhR622XuNfzkS4xQ6F5cGJiBxceSQaA5AVu84vdKvOI381oDApB5NW9asXhnwKkUMp4giwozFAGWDQIZT8AksyqUbf/xi5fLJ2Y8jAwEAAHIwKJvXfLAUaN61dRYE/DegAxuAiw9cwmEaJZRUDDqq+fGL8hcCJm9cghAZtefxMuDchfVmffGKe5cHIh+yPB+wPIzgoBtU+iRffc/+orxY0fXZ8SKscjtEsAffDRGE4E9h580yDQjD5Md7wskIAACASUQMublxo2LPpv84vsBXSGWxSAAAWDACnpo//7nRozOmy6LRs0biaz8oK8X6wOBjCFgGjVhyx5La0oemDnzsWjGrBsLbZEABAAN0oxA/9NO28nYYl8Ui8f+YlvUCohAAAQ0JWBStcj8yay4cfv/3ixfo+kqkLZHBCAAHoENwrR7jvh966xw9OJYjM4Xtwa3D8KasAYQyAQCJtFqk8KPdO7Z/sFX77tvcyasGWvkE4AA8Jll3gjbNgccO+qwLWb8LLJCJ+HngcxrAaxYBwJmvUHW65ZhPh1Z3eptnOrXoWb+5ggB8Je/dns//fTTi76pjR5BUeMwI2QdTnG7t3aLQMIgEBQCJs0Vr+2dEjFDU3vlhd9/9tlnq4KyNKzDewIQAO8ZB3oP/crKOlKcDqCGUC/DtnvbYepDcauradpFlkV5gV48FgcCaSBgmlRnWUaVbdISM27OtQ1jXjjHmmdFzf/OmvTCqjSkgF0ElAAEIKCFVWFZ4hkDobl1kSKRS+tE+djDu31gkdE5UZzX/75+1QaK1TWmtJvs9iUUKchJaQ6dBt/faT7lG+o/Pv77+jy6Z73vLUYm2cuNNxcPSaLGFbvlRavKy8vjScQiBATYBCAAbGQY4AWBvuNvWxQnq5sXc3Pm3LJsLcVqU3s2Sk6nthQpzJyTHx/2+pKKzBgHsy+xn9cV0XnLdvNl39vuNETm4m//cG133xNBAhlPAAKQ8S2gBgAIgBp1cJMFBIBHDQLA44Vo7whAALxji5kZBCAADFiKhUIAeAWBAPB4Ido7AhAA79hiZgYBCAADlmKhEABeQSAAPF6I9o4ABMA7tpiZQQACwIClWCgEgFcQCACPF6K9IwAB8I4tZmYQgAAwYCkWCgHgFQQCwOOFaO8IQAC8Y4uZGQQgAAxYioVCAHgFgQDweCHaOwIQAO/YYmYGAQgAA5ZioRAAXkEgADxeiPaOAATAO7aYmUEAAsCApVgoBIBXEAgAjxeivSMAAfCOLWZmEIAAMGApFgoB4BUEAsDjhWjvCEAAvGOLmRkEIAAMWIqFQgB4BYEA8Hgh2jsCEADv2GJmBgEIAAOWYqEQAF5BIAA8Xoj2jgAEwDu2mJlBAALAgKVYKASAVxAIAI8Xor0jAAHwji1mZhCAADBgKRYKAeAVBALA44Vo7whAALxji5kZBCAADFiKhUIAeAWBAPB4Ido7AhAA79hiZgYBCAADlmKhEABeQSAAPF6I9o4ABMA7tpiZQQACwIClWCgEgFcQCACPF6K9IwAB8I4tZmYQgAAwYCkWCgHgFQQCwOOFaO8IQAC8Y4uZGQQgAAxYioVCAHgFgQDweCHaOwIQAO/YYmYGAQgAA5ZioRAAXkEgADxeiPaOAATAO7aYmUEAAsCApVgoBIBXEAgAjxeivSMAAfCOLWZmEIAAMGApFgoB4BUEAsDjhWjvCEAAvGOLmRkEIAAMWIqFQgB4BYEA8Hgh2jsCEADv2GJmBgEIAAOWYqEQAF5BIAA8Xoj2jgAEwDu2mJlBAAKQPCwrGiM7Fm8aYEYiZITN5Ad7EAkB4EGFAPB4Ido7AhAA79hiZgYBCEDLsOy4RdFNVdRYWUu2EIBtNzM7QpHiAspqXSiMIP0faQgAo9FFKASAxwvR3hFI/18L79aCmTUmAAHYcfFitfVUv3I9ORLQ0mZGwpTTqS2FcrLS2gkQAB5uCACPF6K9IwAB8I4tZmYQgABsH1a0uk4c/DcQ2XZSNA3DoNxdd6ZQbnZS8TKCIAA8ihAAHi9Ee0cAAuAdW8zMIAABaA4r3hClLUtWi2N/cgf/rTMY4RDld9uFjFB6rg2AADAaHT8B8GAh2lMCEABP8WLyZAlAAJqT2rJiHcWqtySL8FdxkZIiytm5taux3EEQAB4xnAHg8UK0dwQgAN6xxcwMAhCAX8NyrvKvWbgy6VP/zVCbJhX26kQkfhLweoMA8AhDAHi8EO0dAe//OniXO2YOEAEIwK+LGd1cQ/WrN6ZU4TznWoC8nJTmSGYwBCAZSr/EQAB4vBDtHQEIgHdsMTODAATg17Aa1lVQ48YqBsHmoTm7tGm6PdDrDQLAIwwB4PFCtHcEIADescXMDAIQgN8IwJqN1FhRwyDYPDS7XWvKalOU0hzJDJ7SYxa1CUeTCfU15qOaVnTxil6+5uDsHALgewmQwE8EIABoBSUIQAB+XYb61Zsourk6pdpkt2slBKA4pTmSGfxC6be0W3ZdMqG+xkzc3I7Grenqaw4QAN/xI4FtCEAA0A5KEIAA6CsA17f/gU5ptU6JPmopiZvWlNIrm9v6nifOAPheAiSAMwDoAZUIQAD0FYAB+ZX0r87zVGqnZrk02iYdvagfbYpFfM8TAuB7CZAABAA9oBIBCIC+AuBk/uSuc2if3NR+svCyH5+uaE93r+3i5S6SnhsCkDQqBHpMAD8BeAwY0ydHAAKgtwB0za6np7t8R4WhH99SqNK2pDGXzlq6O1XHQ0qkBQFQogxIQhCAAKANlCAAAdBbAJzs98utors7LaBihSRgSWMOXbi8N62Kpu/dCIk+UBCARITw79NFAAKQLtLYT4sEIAD6C4Czgk5Z9XRVu2V0aMFmXzs+Zhv0cmVbenB9Z2W++W8FAgHwtTWw820IQADQDkoQCJQAdGxLkaK8lLjKuQ0wPc8B2N5Ce+fU0dCCCtpN/LMkFKWw0fKrjFOC9dPgBjtE62NZNHtLPk2pbk1rFPrWv+36IAAyqo05ZBCAAMigiDlSJqCKADiv3o1W1aa0nrwu4hG8+ak9glfKkwA7iCcBtvL+SYApwcrAwRCADCy6okuGAChamExLSxUBaFi7mRo3VaaEv6B7RzKywinN0SgeAtQgHgaUypYrRCScooiksn+M3T4BCAA6QxUCEABVKpHheagiALG6etqydK3rapjiwJ8vBCDVzYrGqHbRKtdvAzRMgwp6dU7L2wBTXWumjYcAZFrF1V0vBEDd2mRUZqoIgG0T1S1eRVaju2fb54jn70ckPX+/btlaitfWu+qDSOtCymlf4mosBnlLAALgLV/MnjwBCEDyrBDpIQFVBMBZYqx6C21ZuZ797dvMilB+tw7SvnXH6xup7oc17DyMsEl5pR3JFP/Eph4BCIB6NcnUjCAAmVp5xdatkgA4aBrWi2sBNiR/LYARMil31/YUypb7qNno5hqqXyOuBXBOTSSzGQbldW6X8kWIyewKMe4IQADcccMo+QQgAPKZYkYXBFQTAGcJjZuqqGGduJ89wcHX+eaf06mt9IP/VozR6jpqWLWBbKtlCXC++ed2FAf/PHUeeuOiFQI/BAIQ+BJrs0AIgDalCnaiKgqAQ9xqjDWdCYiJg7Bt/fpedufAnyVus4uUFEo77b+jKtuxODU05VFLduw3eYTDFG6VT9nOq3/FxX/Y1CYAAVC7PpmUHf5aZFK1FV6rqgLwMzJxFiDeEBUH3xgZhklmJJzyrX6uyiHycKTEcvJw/hMRhxORi0jK1XQYlH4CEID0M8cet08AfzXQGUoQUF4AlKCEJIJAAAIQhCoGYw0QgGDUUftVQAC0LyEWkCQBCECSoBDmOQEIgOeIsYNkCEAAkqGEmCAQgAAEoYrBWAMEIBh11H4VEADtS4gFJEkAApAkKIR5TgAC4Dli7CAZAhCAZCghJggEIABBqGIw1gABCEYdtV8FBED7EmIBSRKAACQJCmGeE4AAeI4YO0iGAAQgGUqICQIBCEAQqhiMNUAAglFH7VcBAdC+hFhAkgQgAEmCQpjnBCAAniPGDpIhsMdT474XD9rrk0wsYkBAZwLimU3ffX/29X11XgNyDwYBCEAw6qj9Kvb4z62fW7Z9gPYLwQJAICEB47M5f7juoIRhCAABjwlAADwGjOmTI9D3yVvfjhv2UclFIwoE9CUgXun09tw/XH+MvitA5kEhAAEISiU1X0efJ299mAz7As2XgfRBICEB2zQfnHvWtZckDEQACHhMAALgMWBMnxyBvk+NuyRu0f3JRSMKBPQlEDbti74564aH9V0BMg8KAQhAUCqp+Tr2eObOQ6xY48eaLwPpg0BCArk2HfTl6Os/SxiIABDwmAAEwGPAmD45AtOmTQtfsHTGJiKrMLkRiAIBHQmY1XkNbdrMPO+8qI7ZI+dgEYAABKueWq+mz1PjXieLjtV6EUgeBFogYNjGa9+Pvu4EQAIBFQhAAFSoAnJoIrDb+DtPM6jxOeAAgaASMGw69fvR15cHdX1Yl14EIAB61SvQ2XZ68cXcwrqFq8XPAMWBXigWl5EETKLN+9sdO4wfPbo+IwFg0coRgAAoV5LMTmjP8ePuiBFdmdkUsPogErBtum3u6OuvC+LasCY9CUAA9KxbYLPu+/itO8ezjSVkWbmBXSQWlnEExLf/upCZXfr1WX9bl3GLx4KVJQABULY0mZtY3/G3jIuTgW9KmdsCgVt5xLZv+nr0DWMDtzAsSGsCEACtyxfM5J1rAVrVLfw2Tla3YK4Qq8okAqZBi/a3OvbFb/+ZVHU91goB0KNOGZflPs/fenh9g/2uWLg4e4oNBDQlYJrx7Hh82Fejb/hA0xUg7QATgAAEuLi6L22P8eNusohu1H0dyD9zCdjh8Ji5Z1x9c+YSwMpVJgABULk6mZ7biy+Gdq9bONEmCw9OyfRe0HH9pvnynDOvKSPDEB6LDQTUIwABUK8myGgbAs71AEV1896xyTgUYEBAFwKGQR8eYHU8Cr/761KxzMwTApCZdddq1Xs99Y/8RqthomjWo7VKHMlmJAE7RFNjbbqeuHD4GVUZCQCL1oYABECbUmV2omUvvpj13ZZ5/7Zt44zMJoHVK03Apv/0ze91bvmppzYqnSeSAwFBAAKANtCKwB7j7zyLqPER8aNqnlaJI9mgE6inkHH1nDOvuz/oC8X6gkMAAhCcWmbMSga8fG+fmuotD8dta2jGLBoLVZaAQeaUeCh04bwzr5qnbJJIDAS2QwACgLbQlkCf/9w5Srw98AbxjPU9tF0EEteXgGl+a8Stm/F2P31LmOmZQwAyvQN0X79tm31fuPX4WAOda5jmEeIdAiHdl4T8FSYgHuxj2Pa7thV+bM4frpyEW/wUrhVSS0gAApAQEQJ0IdD/6Uc7NMTWHy8U4DBxjcBgcfd1O11yR57qEjDJXGsb8enimZRT82PZr/1v9JVr1M0WmYFA8gQgAMmzQqRmBHq8+H9ti2ld7/raeKe4YRYZNhWHs/BoYc3KmNZ0Y41k2QZVGkaoMi/XWlndNjx3/tC/bkhrEtgZCKSJAAQgTaCxGxAAARAAARBQiQAEQKVqIBcQAAEQAAEQSBMBCECaQGM3IAACIAACIKASAQiAStVALiAAAiAAAiCQJgIQgDSBxm5AAARAAARAQCUCEACVqoFcQAAEQAAEQCBNBCAAaQKN3YAACIAACICASgQgACpVA7mAAAiAAAiAQJoI/H+J2+hoNqCb8AAAAABJRU5ErkJggg==;" vertex="1" parent="1">
          <mxGeometry x="223.5" y="340" width="60" height="60" as="geometry" />
        </mxCell>
        <mxCell id="H3UDUS9OnX6FCk1xAzzP-4" value="" style="shape=image;verticalLabelPosition=bottom;labelBackgroundColor=default;verticalAlign=top;aspect=fixed;imageAspect=0;image=data:image/png,iVBORw0KGgoAAAANSUhEUgAAAgAAAAIACAYAAAD0eNT6AAAgAElEQVR4Xu2dCbQdVZmo/3POnW8GMs8hgQQwjEFQQFQCGAg428buXt0q/Z6KPEhAUFogTDEo2mAIOGBP9qNfa4PaLQIBRFGmFgSZIhBIIJCRzMO9ueM551XdQCDh3twa9t61d+2v1mLZ76X29P3/qfPdfarqLwgHBCAAAQhAAALeESh4t2IWDAEIQAACEICAIAAkAQQgAAEIQMBDAgiAh0FnyRCAAAQgAAEEgByAAAQgAAEIeEgAAfAw6CwZAhCAAAQggACQAxCAAAQgAAEPCSAAHgadJUMAAhCAAAQQAHIAAhCAAAQg4CEBBMDDoLNkCEAAAhCAAAJADkAAAhCAAAQ8JIAAeBh0lgwBCEAAAhBAAMgBCEAAAhCAgIcEEAAPg86SIQABCEAAAggAOQABCEAAAhDwkAAC4GHQWTIEIAABCEAAASAHIAABCEAAAh4SQAA8DDpLhgAEIAABCCAA5AAEIAABCEDAQwIIgIdBZ8kQgAAEIAABBIAcgAAEIAABCHhIAAHwMOgsGQIQgAAEIIAAkAMQgAAEIAABDwkgAB4GnSVDAAIQgAAEEAByAAIQgAAEIOAhAQTAw6CzZAhAAAIQgAACQA5AAAIQgAAEPCSAAHgYdJYMAQhAAAIQQADIAQhAAAIQgICHBBAAD4POkiEAAQhAAAIIADkAAQhAAAIQ8JAAAuBh0FkyBCAAAQhAAAEgByAAAQhAAAIeEkAAPAw6S4YABCAAAQggAOQABCAAAQhAwEMCCICHQWfJEIAABCAAAQSAHIBAQGDO/MVVQEBANYFF82ZxjVUNlf6UESA5laGkI5cJIAAuR8/euSMA9saGmYkgAGQBBNgBIAc0EUAANIGlWyUEEAAlGOnEdQLsALgeQTvnjwDYGRdmtYsAAkAmQIAdAHJAEwEEQBNYulVCAAFQgpFOXCfADoDrEbRz/giAnXFhVuwAkAMQ2E0AASAZdBBAAHRQpU9VBNgBUEWSfpwmgAA4HT5rJ48AWBsaJsY9AOQABHYRQADIBB0EEAAdVOlTFQF2AFSRpB+nCSAATofP2skjANaGhomxA0AOQIAdAHJAHwEEQB9bek5PgB2A9AzpIQcE2AHIQRAtXAICYGFQmNJuAggAyQAB7gEgBzQRQAA0gaVbJQQQACUY6cR1AuwAuB5BO+ePANgZF2a1iwACQCZAgB0AckATAQRAE1i6VUIAAVCCkU5cJ8AOgOsRtHP+CICdcWFW7ACQAxDYTQABIBl0EEAAdFClT1UE2AFQRZJ+nCaAADgdPmsnjwBYGxomxj0A5AAEdhFAAMgEHQQQAB1U6VMVAXYAVJGkH6cJIABOh8/aySMA1oaGibEDQA5AgB0AckAfAQRAH1t6Tk+AHYD0DOkhBwTYAchBEC1cAgJgYVCY0m4CCADJAAHuASAHNBFAADSBpVslBBAAJRjpxHUC7AC4HkE7548A2BkXZrWLAAJAJkCAHQByQBMBBEATWLpVQgABUIKRTlwnwA6A6xG0c/4IgJ1xYVbsAJADENhNAAEgGXQQQAB0UKVPVQTYAVBFkn6cJoAAOB0+ayePAFgbGibGPQDkAAR2EUAAyAQdBBAAHVTpUxUBdgBUkaQfpwkgAE6Hz9rJIwDWhoaJsQNADkCAHQByQB8BBEAfW3pOT4AdgPQM6SEHBNgByEEQLVwCAmBhUJjSbgIIAMkAAe4BIAc0EUAANIGlWyUEEAAlGOnEdQLsALgeQTvnjwDYGRdmtYsAAkAmQIAdAHJAEwEEQBNYulVCAAFQgpFOXCfADoDrEbRz/giAnXFhVuwAkAMQ2E0AASAZdBBAAHRQpU9VBNgBUEWSfpwmgAA4HT5rJ48AWBsaJsY9AOQABHYRQADIBB0EEAAdVOlTFQF2AFSRpB+nCSAATofP2skjANaGhomxA0AOQIAdAHJAHwEEQB9bek5PgB2A9AzpIQcE2AHIQRAtXAICYGFQmNJuAggAyQAB7gEgBzQRQAA0gaVbJQQQACUY6cR1AuwAuB5BO+ePANgZF2a1iwACQCZAgB0AckATAQRAE1i6VUIAAVCCkU5cJ8AOgOsRtHP+CICdcWFW7ACQAxDYTQABIBl0EEAAdFClT1UE2AFQRZJ+nCaAADgdPmsnjwBYGxomxj0A5AAEdhFAAMgEHQQQAB1U6VMVAXYAVJGkH6cJIABOh8/aySMA1oaGibEDQA5AgB0AckAfAQRAH1t6Tk+AHYD0DOkhBwTYAchBEC1cAgJgYVCY0m4CCADJAAHuASAHNBFAADSBpVslBBAAJRjpxHUC7AC4HkE7548A2BkXZrWLAAJAJkCAHQByQBMBBEATWLpVQgABUIKRTlwnwA6A6xG0c/4IgJ1xYVbsAJADENhNAAEgGXQQQAB0UKVPVQTYAVBFkn6cJoAAOB0+ayePAFgbGibGPQDkAAR2EUAAyAQdBBAAHVTpUxUBdgBUkaQfpwkgAE6Hz9rJIwDWhoaJsQNADkCAHQByQB8BBEAfW3pOT4AdgPQM6SEHBNgByEEQLVwCAmBhUJjSbgIIAMkAAe4BIAc0EUAANIGlWyUEEAAlGOnEdQLsALgeQTvnjwDYGRdmtYsAAkAmQIAdAHJAEwEEQBNYulVCAAFQgpFOXCfADoDrEbRz/giAnXFhVuwAkAMQ2E0AASAZdBBAAHRQpU9VBNgBUEWSfpwmgAA4HT5rJ48AWBsaJsY9AOQABHYRQADIBB0EEAAdVOlTFQF2AFSRpB+nCSAATofP2skjANaGhomxA0AOQIAdAHJAHwEEQB9bek5PgB2A9AzpIQcE2AHIQRAtXAICYGFQmNJuAggAyQAB7gEgBzQRQAA0gaVbJQQQACUY6cR1AuwAuB5BO+ePANgZF2a1iwACQCZAgB0AckATAQRAE1i6VUIAAVCCkU5cJ8AOgOsRtHP+CICdcWFW7ACQAxDYTQABIBl0EEAAdFClT1UE2AFQRZJ+nCaAADgdPmsnjwBYGxomxj0A5AAEdhFAAMgEHQQQAB1U6VMVAXYAVJGkH6cJIABOh8/aySMA1oaGibEDQA5AwE8CMz9/bTWLld/744v5oyML8IwJgV4I8GEkLSDgIQEEwMOgs2QI7EUAASAlIOAhAQTAw6CzZAggAOQABCCAAJADEIAAOwDkAAQ8JIAAeBh0lgwBdgDIAQhAAAEgByAAAXYAyAEIeEgAAfAw6CwZAuwAkAMQgAACQA5AAALsAJADEPCQAALgYdBZMgTYASAHIAABBIAcgAAE2AEgByDgIQEEwMOgs2QIsANADkAAAggAOQABCLADQA5AwEMCCICHQWfJEGAHgByAAAQQAHIAAhBgB4AcgICHBBAAD4POkiHADgA5AAEIIADkAAQgwA4AOQABDwkgAB4GnSVDgB0AcgACEEAAyAEIQIAdAHIAAh4SQAA8DDpLhgA7AOQABCCAAJADEIAAOwDkAAQ8JIAAeBh0lgwBdgDIAQhAAAEgByAAAXYAyAEIeEgAAfAw6CwZAuwAkAMQgAACQA5AAALsAJADEPCQAALgYdBZMgTYASAHIAABBIAcgAAE2AEgByDgIQEEwMOgs2QIsANADkAAAggAOQABCLADQA5AwEMCCICHQWfJEGAHgByAAAQQAHIAAhDQugNwwa23NpaXDtwJZghAAAI+Epg+vqHxrLNmtPu4dtZsPwGtAnDltfeO3dxZXm0/BmYIAQhAQD2B4sgRYxd+6Zi16numRwikJ6BVAOZd/dCh2wo7lqSfJj1AAAIQcI9AdXD10BvnnPGcezNnxj4Q0CoAF3/r1ye2dXU/6ANI1ggBCEBgbwKV+voTb/rayQ9DBgI2EtAqAOd9466PFKqF221cOHOCAAQgoJtATanhI9dfMuMO3ePQPwSSENAqAHOvvvuz1UL135JMjDYQgAAEXCdQLJU+u/CSmbe4vg7mn08CWgVgzoJ750qlvDCf6FgVBCAAgX0TKBRk7g2XzVoEJwjYSECrAHxl/uIru0WusHHhzAkCEICAbgI1IlddP2/WlbrHoX8IJCGgVQDmXLN4kZTlvCQTow0EIAAB1wnUVEuLrr985lzX18H880lAqwDMnb/4lqrI3+QTHauCAAQg0A+BQuGWRZed/lk4QcBGAloF4IKr776jXKieaePCmRMEIAAB3QQKUr3jhnlnfET3OPQPgSQEtArAnG/c87BUKyckmRhtIAABCLhOoCTy8HfnzTrR9XUw/3wS0CoA58+/97mKlN+VT3SsCgIQgEA/BKry3KLLZx0KJwjYSECrAMyZvzh8B/ZoGxfOnCAAAQjoJlAsFtYuvPT0sbrHoX8IJCGgWQDuaROpNCSZGG0gAAEIuE+g2L5o3mmN7q+DFeSRgDYBoBRwHtOFNUEAAnEJUBI4LjHON0VAmwBQCthUCBkHAhCwmQAlgW2Ojt9z0yYAlAL2O7FYPQQgsIsAJYHJBFsJaBMASgHbGnLmBQEImCRASWCTtBkrDgFtAkAp4Dhh4FwIQCCvBCgJnNfIur8ubQKgqxTwtNNud586K7COwHP3fFTpnK44N5v3X1110yOR1sH8escUlV8kyG+cREngOLQ41yQBbQKgqxQwAmAyPfwZCwEwE+uoX7C2C0ocWpQEjkOLc00S0CYAukoBIwAm08OfsRAAM7H2UQAoCWwmtxglPgFtAqCrFDACED/ItOifAALQPyMVZ3gpAJQEVpE69KGBgDYB0FUKGAHQkAV0KQiAmSTwUQCEksBmkotRYhPQJgC6SgEjALFjTIMIBBCACJAUnOKjAFASWEHi0IUWAtoEQFcpYARASx543ykCYCYFfBQASgKbyS1GiU9AmwDoKgWMAMQPMi36J4AA9M9IxRk+CoBQElhF6tCHBgLaBEBXKWAEQEMW0CX3ABjKAR8FgJLAhpKLYWIT0CgAekoBIwCxY0yDCATYAYgAScEpPgqACCWBFaQOXWggoEUAdJYCRgA0ZAFdsgNgKAf8FAARSgIbSjCGiUVAiwDoLAWMAMSKLydHJMAOQERQKU/zVQAoCZwycWiuhYAWAdBZChgB0JIH3neKAJhJAV8FgJLAZvKLUeIR0CIAOksBIwDxAszZ0QggANE4pT3LVwGgJHDazKG9DgJaBEBnKWAEQEca0CcCYCYHfBUASgKbyS9GiUdAiwDoKgUcLg0BiBdgzo5GAAGIxintWb4KACWB02YO7XUQ0CIAukoBIwA6UoA+QwIIgJk88FUAKAlsJr8YJR4BLQKgqxQwAhAvuJwdnQACEJ1VmjN9FQBKAqfJGtrqIqBFAHSVAkYAdKUB/SIAZnLAWwGgJLCZBGOUWAS0CICuUsAIQKzYcnIMAghADFgpTvVVACgJnCJpaKqNgBYB0FUKGAF4Zx689OCpiZJj6vvvS9Qur40QADOR9VUAKAlsJr8YJR4BLQKgqxQwAvDO4Cb94uJpij1ZJuXY18ftinNPiPdJVHR2Xr5gbecXN1yUBI5LjPNNENAiALpKASMACICuDwUCoIvsnv3mRVBi06IkcGxkNNBPQIsA6CoFjAAgALo+EgiALrIIQEiAksBm8otR4hHQJAB6SgEjAAhAvPSOfjYCEJ1VmjO93QGgJHCatKGtJgLKBUBnKWAEAAHQ9DngRUC6wO7Vr78CQElgQynGMDEIKBcAnaWAEQAEIEZuxzqVHYBYuBKf7LMAUBI4cdrQUBMB5QKgsxQwAoAAaPocsAOgCyw7ALsJUBLYUJIxTGQCygVAZylgBAABiJzZMU9kByAmsISn+7wDQEnghElDM20ElAuAzlLACAACoOuTgADoIrtnvz4LACWBzeQYo0QnoFwAdJYCRgAQgOipHe9M1QIQb3TO9oEAJYF9iLJba1QuADpLASMAbyVXubu25/+x9DezEmXcwacsllKpS0R5BiSaTuaNEIDMQ5D7CVASOPchdm6Byi//OksB+yYA5c462bllePDfUGlvHSBdwX/dwf9fpRwUF1V0FIoVKdV2SV1Tq9Q1t0jjoK3SPGxj8P9uUTSCG90gAG7EyeVZUhLY5ejlc+7KBUBnKWAfBCD8y37HujGydc1E2bl1qEg1m8SrbWyTwWNWyuCxq6W+eUc2kzA4KgJgELanQ9VQEtjTyNu7bOUCoLMUcJ4FIPzLfsvKybL51QOl3KXuL3wVqdc0ZLOMOPCFnp2BvB4IQF4ja9G6CoVbFl12+mctmhFT8ZyAcgHQWQo4lwJQLcim1w6QDcsOlkq3XV/8e382BoxYJ6PftUTqGnfm7mODAOQupNYtiJLA1oXE+wkpFwCdpYDzJgCdwW/6q54+Rtp3DHImEcN7BkYe9LwM3f/l4P7BjH6f0EALAdAAlS73IEBJYBLCNgLKBUBnKeA8CcD2teNkzXNHWv9Xf18JO3DE6zL28CeDGwg7bcvpRPNBABJho1EcApQEjkOLcw0QUC4AOksB50UAwi3/1184LLMb/FTlVfjUwP7v/oPU5uAnAQRAVVbQT18EKAlMbthGQIMA6CsFnAcB2LD8oOD3/kNsy4PE86lpaJPJxzwitc2tifuwoSECYEMU8j6HYvuieac15n2VrM8dAkoFQHcpYNcFYMvKSbL2uSPcyY6IMw1vCpz03oekpr49Ygv7TlMtAFece0Imi8zLq3Zt55c0uNPHNzSeddYMdz8oSRdOOysJKBUA3aWAXRaAlk0j5LUnjnd+27+vLG4YtK1HAorFspWJ3t+kEID+CKn597wISlIalAROSo52OggoFQDdpYBdFYDuzgZ5+ZEPSHdHg44YWtPnkAkrZMy0Z6yZT5yJIABxaCU/13cBoCRw8tyhpXoCSgVAdylgVwVg5ZPHyo71Y9RHz8IeJ0x/TAaOXGfhzPY9JQTATMh8FwBKApvJM0aJRkCpAOguBeyiALRsHBls/R8XLRo5OCu8KXDK++6XYk23U6tBAMyEy3cBoCSwmTxjlGgElAqA7lLAzglA8J6c5Q/PkI7WgdGiEeOsYqlbCoV0L+J5s6JgjGEjnTr8gJdk5NTnI51ry0kIgJlI+C4AlAQ2k2eMEo2AUgHQXQrYNQHY8fpYWfnUMdEisa+zgi/68MU7A0euleb9NkupoV2KpfQ321UrRSl31kvbjoHSsmF0z88U3R31qecbysnUD97n1EuCEIDUYY/Uge8CQEngSGnCSYYIKBUA3aWAXROAFY+euKuiX4oj/NIfFbx6N3zpju4jFILNwUuKNr58UOqCRCMOXCojpizVPWVl/SMAylDusyPfBYCSwGbyjFGiEVAqALpLAbskAF2tzbLsoZODt+UnQxy+Z39E8MU/fPKyaJFUeFb4tMLKP71H2rbvl7jX8J0AU0/6tTP1AhCAxKGO1dB7AaAkcKx84WS9BJJ9O/UxJ92lgF0SgLC634blByeKXvjlP+6oJ2TQqDWJ2qtoVCmXAgl4r7RuHp64u/2PfUSah7pRQhgBSBzmWA19F4Dgxh1KAsfKGE7WSUCpAOguBeySAKTZ/rdl+7zcVSev/OFE6dw5IFEODp34SlA++NlEbU03QgDMEPddACgJbCbPGCUaAaUCoLsUsCsCUOmukaW/PV2q1WK0KLztrPC3/vAxOkl5h3/sgftoEP4MsOJ/3p/op4yetZz4W1VT0doPAqAV7+7OfRcASgKbyTNGiUZAqQDoLgXsigCEN/6FOwBJjvFHPZ7p1n9vc1799Ltl27pxsZcT/pQxdcavpabO/lefIwCxw5uoge8CEHwknlt0+axDE8GjEQQUE1AqALpLAbsiAFtXT5Q1S46KHapSTZccNOMeKRQrsdvqbNC+Y1DwKuOTEg3hyn0ACECi8MZu5LsAUBI4dsrQQCMBxQKgtxSwKwKw4aVDZEPwKF3cY9DoNTL+yMfjNjNy/ksPnCpdbU2xxxod1AYYGtQIsP1AAMxEyHcBEKEksJlMY5QoBJQJgIlSwK4IwLrnDw+ep58chf8e54TPzYc3ANp4rPnzUbJ11cTYU3PlrYAIQOzQJmqAAIhQEjhR6tBIAwFlAmCiFLArArBmyXTZunpC7HCNmfa0DJnwaux2JhqEOxrhzkbcY8j+L8uYQ5bEbWb8fATADHIEINgDGDli7MIvHbPWDHFGgUDfBJQJgIlSwO4IQPDXcnAfQNwjLKUbltS18WjZMEo2v3pA7Kk1DduQycuM4k4UAYhLLNn5CIAIJYGT5Q6t1BNQJgAmSgG7IgCJfwI48MXg9bkvqI8yPfZLAAHoF5GSExAAEUoCK0klOlFAQJkAmCgF7IoAJH0L4MDgzX8TgscAOcwTQADMMEcARCgJbCbXGKV/AsoEwEQpYFcEYOuaCbLm2en909/rjGJNd89jgMVi+kp/sQf3vAECYCYBEIDgHoBS6bMLL5l5ixnijAKBvgkoEwATpYBdEYC2bUOCV+i+P1HejTviTzJ4zKpEbWmUnAACkJxdnJYIQPCSz4LMveGyWYvicONcCOggoEwATJQCdkUAwkI6S387S8LyunGP2sadPa/Pte1lQHHX4dr5CICZiCEAwU8AIlddP2/WlWaIMwoETOwAXLN4kZTlPN2wp512u+4hlPS/4rETZeeWoYn6GjZpuYw6+M+J2tIoGQEEIBm3uK0QgEAAKAkcN204XxMBZTsAJkoBu7IDEM5zY/Dc/PoEz82/Geexhz0p+41bqSnsdLs3AQTATE4gAAFnSgKbSTZG6ZeAMgEwUQrYJQHoamuUZcHrc6uSDHFYSGfY5OUy4qDngx6q/QaSE9IRQADS8YvaGgEIvv+lescN8874SFRmnAcBXQSSfTv1MhsTpYBdEoBwriv+eILs3Dw8Veyah24Mfg54ThoGbU3VD433TQABMJMhCIAIJYHN5Bqj9E9AmQCYKAXsmgC0bBgtr/3pPf1HoZ8zwh2ApqGbZMCoddK83yapqW+XUn0nOwOpyb7VAQKgEOY+ukIAAjiUBDaTbIzSLwFlAmCiFLBrAhBu/7/yyAclLKdr6xG+e6BY7A6kokvqmlukvmmHNA3ZLI1DNgXPK/vzPgIEwEyGIgDBewCKhbULLz19rBnijAKBvgkoFAD9pYBdE4Bwvq3BTwCvBj8FuHaEjyE2B+/xD99JMGjU2tw/logAmMlQBCDkTElgM9nGKP0RUCIApkoBuygA4ZxXP3O0bFs7vr9YWPvvNXWdMnT/5TJk4gop1XRZO880E1MtAGnmQtv8E6AkcP5j7MIKlQiAqVLArgpAubtWXn7kJAmfDHD5CL/8R0xZKkP2fyV39x8gAC5npntzpySwezHL44yVCICpUsCuCkA47/ClQOFPAdVq/LcD2pZ44T0C4w5/Qmob22ybWuL5IACJ0dEwAQFKAieARhPlBJQIgKlSwC4LQDj3bWvG9xQJSvpuAOXRT9FhqbYzkICnZMCIdSl6sacpAmBPLHyYCSWBfYiy/WtUIgCmSgG7LgDh/De9eqC8/sKh9mdGhBmGjyeOnvaMDJnwaoSz7T4FAbA7PnmbHSWB8xZRN9ejRABMlQLOgwCEa9i6aqKs/fORudgJCNcz+uAlMnTSy25+At6YNQLgdPicmzwlgZ0LWS4nrEQATJUCzosAhOvYsXGUrHlmupS76pxPrHAnYOzhT8rgse6WMUYAnE9DpxZASWCnwpXbySoRAFOlgPMkAOFautqaZPWzRyeuGmhTVhYKFdn/PY9I036bbZpW5LkgAJFRcaICApQEVgCRLlITUCIAcwyVAs6bAITrCW8I3LZqgrz+0jQpd7q9G1DbuFMOOP4BCW8QdO1AAFyLmNvzpSSw2/HLy+yVCICpUsB5FIA3E6nSXSObX5ssm4ObBLsdFoHwZ4Bxh//Juc8HAuBcyNyeMCWB3Y5fTmavRABMlQLOswDsFoFKSVrWj5JtqydIy+YRUq249d6A8H6Aicc+Is1B8SKXDtUCcMW52bz+OS+v2r3h8/+YSfrM/fEXjIxLSWAjmBmkHwJKBMBUKWAfBODt8aqUS9K2ZZjs3DpUOloGSOfO5mB3oF7C3YJKOfgV0dIjLF08+fgHnXpbIAJgJpmiCkreBYCSwGbyjVH2TUCJAJgqBeybAOhO3vD+g3IgFN0dddIWFC3avn60tG4ZHt6YkPqYePSjwUuCXk/dj6kOEAAzpBGANzhTEthMwjHKPgkoEQBTpYARAP3Z3L59sKx/cZq0bBqRarDmoRtl/+CnAFcOBMBMpBCAXZwpCWwm3xjFwA7AnPlmSgEjAObSefOrB8i6pYcl3g0I7wU48AO/kbrgyQAXDgTATJQQgDc5UxLYTMYxyr4IpN4BMFkKGAEwm8xbV0+UNUuOSjzoyIOel+GTX0rc3mRDBMAMbQTgLc6UBDaTc4zSN4HUAmCyFDACYD6VX186TTatmJJo4KbgZ4BJjvwMgAAkCnHsRgjAW8goCRw7fWigmEBqATBZChgBUBz9CN2FjyEuf3hGzxMIcY9CsSKHnHKXhP9r+4EAmIkQAvAWZ0oCm8k5RtG4A2CyFDACkE0qh2WMw1cWJzkmH/egNA7ekqSp0TYIgBncCMBbnCkJbCbnGEWjAJgsBYwAZJPK4S7A0t+enujdA+FbAV0oEoQAmMktBOAtzpQENpNzjKJRAEyWAkYAskvlVU8dK9tfHxN7AiOmLJURBy6N3c50AwTADHEE4C3OlAQ2k3OMolEATJYCRgCyS+UNyw6WDcsPjj2Bofu/LKMPWRK7nekGCIAZ4gjAW5wpCWwm5xhFowCYLAXsigBsfGWK7EzwIp3wy9LWt+dtWTlJ1j53ROzP0n7jX5Oxhz4Vu53pBgiAGeIIwNt+AhC56vp5s640Q55RIPBOAqmfAjBZCtgVAVj7/BGy5bVJsfNt5NTgufkD7HxuHgGIF06KAfXOCwF4mwBUS4uuv3zm3HiZxdkQUEcgtQCYLAXsigCEr9INdwHiHkMmvCpjpj0dt5mR8zcsOyT4CeCg2GMNm/iyjHoXPwHEBpewQdQvWNsFJe/FgP5B064AACAASURBVHrCS0nghFlOM1UEUguAyVLArgjA5tcmy7rnD48do/C1uVM+cF/sdiYarHo6uAlwXYKbAA98UUZMecHEFFONwU8AqfBFbhxVUHwQAEoCR04bTtREILUAmCwF7IoAtG4aLq8+nqwe/AEn/F4aBm7TFO5k3fIYYHxutv+Fbfv8fBAASgLH/1zRQi2B1AJgshSwKwLQ3VEvL/7utESRGjxmlYw74k+J2upqtH3tOFn1zLsTdT/5vQ9I435bE7U12YgdADO02QF4G2dKAptJOkbpk0BqATBZCtgVAQjnueyhk6WzdUD81AsicsBxD0jDIDu+NMO//pc9MkO6WpO9CvjgkxdLsVSOz8FwCwTADHAE4C3OlAQ2k3OM0jcBBQJgrhSwSwKwLnhkbnPw6FySo66pRSYf/6CUarqSNFfaZv1Lh8jGl+Pf/BdOomnIZpn0noeUzkdXZwiALrJ79osAvJ0HJYHNZB2j9EUglQCYLgXskgC0BO8BeO3x4xNnXnNQSW/C0Y9m+tdzuPW/+pmjpSrJ0sTmxxr3DgwCkDhVYzVEAPbERUngWOnDyYoJJLuyvzEJ06WAXRKA4FtTXnzgQ9Ld3pg4ZPUDtsvEox+T2uDpANPHlpX79zzJUK0WEw0d3OEsU97/G6ltMj/3JBNGAJJQi98GAdiTGSWB4+cQLdQRSCUApksBOyUAwWTDV+eGr9BNc5Rqu2XY5BdlWPCWQBNldTtaB8r6F6bJjo2j0kw72P7fFGz/P5yqD5ONEQAztBGAPTlTEthM3jFK7wRSCYDpUsCuCUC5q05eeuBUqXTXpM6/mrp2GThqnQwY+bo0NG+XmvoOJUJQKZekq6NB2rYMkx1BsZ+WDSMTb/m/fZETpz8WzHVd6nWb6gABMEMaAdiTMyWBzeQdo2gQANOlgF0TgHC+6198V/BWwKla8i/tTYLVaiFRid/+FhO+x2DyCQ8Edw4Ev4M4ciAAZgKFAOzJmZLAZvKOUTQIgOlSwC4KQPgX9vKHT5autuT3AriWvBPf/QcZMHy9U9NGAMyECwHYkzMlgc3kHaNoEADTpYBdFIBwzjvWj5GVTx7rRQ4OGr1axh/5hHNrRQDMhAwB2JMzJYHN5B2jaBAA06WAXRWAcN5r/nyUbF01Mdd5GN6nEL7KOLw/wbUDATATMQRgr58AKAlsJvEYpVcCqW4CNF0K2GUBCN+o98ofPiDtOwblMhXD3/snHvuINA/d5OT6EAAzYUMA9hIASgKbSTxGUS8ApksBuywA4dy7O+tlxaPvk86dCV4RbHkCjzlkiQwJHlV09UAAzEQOAdiLMyWBzSQeo6gXANOlgF0XgHD+4Zf/ij8en+oFQbblsktv/OuLnWoBsC1Grs3Hh2qAYUwoCexaZuZrvul+AvjGPQ9LtZKs7m1CjtNOuz1hS3uadbU3yGtPHCcdLW7/HBBu+4846HkZPnmZPXATzgQBSAhOUzNfBICSwJoSiG4jEUglAKZLAedhB+DNqJS7a2X1s9OlZf3oSIGy7aRiTbeMO+yp4OVEa2ybWqL5IACJsGlr5IsABA793KLLZx2qDSQdQ2AfBFIJgOlSwHkSgHAtYZGdLSsmy/pl7wpeyBP8LeDI0RiUKh5/xBNS29zqyIz7nyYC0D8jk2f4IgCUBDaZVYy1N4GUAmC2FHDeBODNYHS1NcnaFw6zfjcgrEswYsrzMmTiCqfe8hflY48ARKFk7hxfBECEksDmsoqRlAlAFqWA8yoAbwalfftg2fjy1J538ictwasjxYulbhky7jUZduAyCZ/1z+OBANgVVX8EQISSwHblnk+zSbwDkEUp4LwLwJuJ17GzWbavniBb142Xrp1NmeRjeINfY/BM/35jV8mg4Hf+8Df/PB8IgF3R9UkAKAlsV+75NJvEApBFKWBfBODtCdgZyMDOzcOkbfsQ6Whtls7WAUF1wVql9wyEX+41dR1S39QqdQO2B6V8N0tT8OWfttiQSx8kBMCuaPkkAJQEtiv3fJpNYgHIohSwjwLQZzIGhfbK5VpZ+ptZifL14FMW97Tz6Ut+X6AQgERppK2RTwJASWBtaUTH/RBILABZlAJGAN4ZzaRfXHl4n4LKT3dSjirnQF9vEfBJACgJTOZnRSCxAGRRChgBQAB0fVBUC8AV5xp9P9ZuLFFftWv7/HwSAEoCq/lUf/rWW0vjVw2aXG4vHlQj5UMqUjqoXK1MCu5nGlyqSHO1JM2VqgwpBv93OGJQnqW1GDyJXShLazn4v4Mbr7eVCsUVRSm/2C2lF6rl7qXrDm5Zcdvs2WU1M7Svl8QCkEUpYAQAAdD1EUIAdJHds9+oguKTAFASOFnunffvdw2SFfLBYrUwI/hF9KSiyKEVkbpkvfXeKuizs1wsLAkk4Xc1NfX3d01se+DGvzlju8oxsuwrsQBkUQoYAUAAdH1YEABdZBGA/sjWUBK4P0S7//2iBfcd0Vmp/GXwxXxypVg+RoI/8yM3VnBiUYrB41CFJ8rV7t/USPWn3738zGcVdJtZF4kFIItSwAgAAqDrk4IA6CKLAPRHtoaSwPtEdME/3T20vKbwF6VC5bPBXvz7+uNp9N+DVzlXa6v/t1xq/Lfvf23GOqNjKxgssQBkUQoYAUAAFOR8r10gALrIIgD9kqUkcK+ILpp//6ld0n5BQYozK1IJNkrsPcKdgapU7q1WStcvumLmb+yd6Z4zSywAWZQCRgAQAF0fLARAF1kEoD+ylAR+G6FqtXDegsUfLhQKlwTb+8f1x87Sf38yuK/jmzdcevrPpFAIbk+w90gsAHMyKAWMACAAuj5KCIAusghAf2QpCRwQCr74537nN7OLHV2XBtv8h/fHzI1/Lz5dKFQW2CwCiQUgi1LACAACoOuDjwDoIosA9EvW85LAc69dfHC1q3BTIAGn9svKyRMKD0qxcM6iS09bYtv0EwtAFqWAEQAEQNcHCAHQRRYB6I+sryWBv3jz400D1m/4WvDo3tdVP77XH3PT/x7eIxA8rvj9UfVNl1188Yk7TI/f13gpBMB8KWAE4J1hfOnBZNI89f332ZKDVswDATATBt4D0Btn/0oCf+Wa+z/cXW7/QUBjvJnMs2OUaqG4slRT/PLCv//QnTbMKJEAZFUKGAGwIWXyOQcEwExcEYDeOftSEvj++++v+dVD7ZcFf/HPC/4LHuf38CgWqzXlwo3HHbL1q7Nnz+7MkkAiAciqFDACkGWq5HtsBMBMfBGA3jn7UBI4KCA3cWdX+afBUw/Hm8k2u0cpFeXx+mL5M9/6+odfzmqmiQQgq1LACEBWaZL/cREAMzFGAHrnnPeSwF+79r6Pd3ZW/rUi5f3MZJojoxSDWgQF+fwNl8y6PYsZJxKArEoBIwBZpIgfYyIAZuKMAPTOOc8lgc+ff9//Eela5O2Wf38frfAngULlousvmXV9f6eq/vdEApBVKWAEQHX46e9NAgiAmVxAAHrnnNeSwOd9866LC92Fb5nJLrdHqZHaa6+fd+rfm1xFIgHIqhQwAmAyNfwaCwEwE28EoHfOeSsJHJbmHbdsv+9VyuUvmcmsfIwSPBL644+dUP+FGTNmBEWH9B+JBCCrUsAIgP6E8HUEBMBM5BGA3jnnqSRw+OU/9sWBP6lW5dNmsipvoxRuXXvw9r++bfbs4KWIeo9EApBVKWAEQG8y+Nw7AmAm+ghAHz8B5KUkcM+7/O+9uVCtfMFMRuV0lKL8aNGls7TvniQSgKxKASMAOU12C5aFAJgJAgLQhwDkpCTweVfftaCnkA9HagK11dqrr7v81CtSd7SPDhIJQFalgBEAnangd98IgJn4IwB9cM5BSeALvnHPOeVq5XtmMsmTUYql8xddOvMGXatNJABZlQJGAHSlAf0iAGZyAAHonbPrJYF3Peff9XMbHvULXy84rrEs4xoqMjL8r64iw4L/6otVaQxKL4b/Gx4dlYK0Bb+yh/+7qbMo68P/Ooqyui38rxRUI87+CNZSKReqH7/xsjN+pWM2iQQgq1LACICOFKDPkAACYCYPEIDeObtcEjh8w19HV+XJilSGmsmid44yuLYqRw3qkoMGlOXA4L/GN77kk84nFINlrTXyYkuNPL29JNu6MnxrcfCyoKFFOfrKr89akXQ9fbVLJABZlQJGAFSHn/7eJIAAmMkFBKAPzo6WBA4q+tXWr9/4+yxe71sbfMkfOagsxw7p7Pni1/UVHe4ELN1RI49vrZWnttVI964NBLNHsfjYiVO3vV917YBEApBVKWAEwGzO+TQaAmAm2ghA75xdLQl8/tX3fLdSqJxvJnt2jVIXfPEfP7RLThneKeFf/iaPHd0FeXhTrdy/qU7ay4m+PhNPt1ZqvnPdvA99LXEHvTRMtII587MpBYwAqAw9fb2dAAJgJh8QgL44u1cSuOeNsIXSL6US/Ihu4CgGo3xgWKfMHNkpzSWzX/x7L681EIF7NtTJg4EIVExNJXhlsBQKH150ycy7VOGOHbgsSwEjAKrCTj97E0AAzOQEAtA3Z5dKAgdb/00NGzY8J1XZ30TmTGysyKfHtUn4vzYda9qLctuaBnm5NbiLw8BRLRRXlg+qm/b92TNaVAwXWwCyLAWMAKgIOX30RgABMJMXCEDfnF0qCXze/Lv+oSCFC3VnTSn4hvrYmI6ev/xjf1npntwb/YcbAL/fWCe3r6uXsoHdgEJVvnXD5bO+rmJ5sZlmWQoYAVARcvpAAESuOPeETBIBAegbuyslgXu+A0qtTwZb/7U6k2hI8Oje5ye0y6Qm7W/EVbKMlcGjg//6WmPwSGHsr9VY4wc3O3bWDSgf9e0LPvx8rIa9nBx7plmWAkYA0oab9n0RYAfATG4gAH1zdqIkcM+rfu/5baFaPUlnxkwd0C3/a2Jbz3P7Lh07gxsD/+nVRlmu+SeBYqH0wMJLP3RScE9Aqj2H2AKQZSlgBMClj4Jbc0UAzMQLAeibswslged++77PVDu6fqozWw4f1C2fC778a2N/O+mcVfS+w8cEb1nZ2PPIoM6jtk4+dd3Fs36RZozYiLMsBZxmobSFAAQgYDMB60sCB3/9X/CNu58ONuQP18XxvUO65C/Ht2t7pl/XvPfuN7xV8aerGuTRLfp+JSkWS08tvORDR6fZBYgtAFmWAjYVPMaBAAQgYJqA7SWBL/rGrz/WWe3+b11cDgv+8g+3/cPH/fJwhBLwb8E9AVp3AkqlM9M8FhgbdZalgPOQFKwBAhCAQG8Egg3jq66fN+tKW+nofAX8lOaynD0p2PZP+Qpf29iFTwXcvKJRlgavFNZyFOUPQdng45P2HVsAsiwFnHSRtIMABCBgO4Eai0sCXzT//lM7pf3XOhgOq6vKV6e0OHfDX1QW4Y2B31nWJJuDYkM6joZK4eRvX3H6/Un6ji0AWZYCTrJA2kAAAhBwgoDFJYGD6/6dwR+zZ6jmWAreJDTnwDZnHvVLuv7XdpZk4ctNWt4TkKaSZGwByLIUcFL4tIMABCBgO4E0F3Kda1uw4L5RGyrlVUG1P+X72J8c2yEfDF7y48Nxf/CyoP9eW698qUUpdo8olsZfeumpr8ftPLYA6PwdKO7kOR8CEIBAXgjYWhL4ggV3X1iuVP9BNecDgt/95xyw09o3/Kleb/jA/sLlTbIi2A1QfhRL5y+6dOYNcfuNLQBZlgKOuzjOhwAEIOAMAUtLAgfF354SqRypkmN4p/9FU3bKuAY33vKnau1h7YDvLGvWUECo+MSieacdE3eesQUgy1LAcRfH+RCAAARcIWBjSeA5C+45LHjl77OqGZ4UlPL9RPCOfx+PnwfFgx4ISgqrPkrVyhHfvfzMWLFKIADZlQJWDYz+IAABCNhDwL6SwOddfdeCQqFwiUpGdcGjflcc0ioDMi7pq3JNcfoKSwlftbRZOhRXUa6R6vzr551xeZy5xBKArEsBx1kY50IAAhBwjYBtJYGDHYBHgx2A96jkeHLw139Y4c/n47+CXYDfqd4FKBQfWXTZae+LwzWWAGRdCjjOwjgXAhCAgGsEbCoJ/MVv/XpwQ7l7k1RE2V1rNcE3zuUHt8rg2vA9ef4e24NdgKuDXYAuhbsA4dMA5cnlYTf+zRnbo5KNJQBZlwKOuijOgwAEIOAiAZtKAuso/HbMfl3yt0GJX47gNcFBwaA/bVX8ZGXMVwPHEoCsSwGTNBCAAATyTMCmksDBy3+uDx5du0Al7y9P3imHDPDrzv+++D23o6bnNcFKj6r8w6LLZ301ap+xBECHEUadKOdBAAIQyDsBm0oCB098/SngPV0V83Db/8rg5j89L8RVNUtz/VQCu7pi6QDZ3hXra7ifCcZ7HDDWyJQCNpccjAQBCPhHwJaSwJ++9dbSmJcGtga//yt7dd0Hg5v/Pun5zX97Z/TP1tTLg5vq1CV6UTrWTt3RfNvs2ZG2WWIJAKWA1cWJniAAAQjsTcCWksAXXH/3lHJr9SWVEfpCUO3vsIHdKrt0vq+nt9XIvwQlg1UeFSkecNO8016J0mcsAaAUcBSknAMBCEAgGQFbSgKf/61fn1np6r4j2Sre2Src9r9m2o7cVvxLyqkt+Dv9kucGBhst6o6SFGZ9d97pd0fpMZYAUAo4ClLOgQAEIJCMgC0lgb9yzeKvdJflumSreGeriY0VuXBKq6ructVPWCp4VZuyJy1FYtQFiCUAlALOVd6xGAhAwDYClpQEnrNg8c3Bn6VfVIXnuCFd8lfjefyvN57/sapBHt2i7tXAxVLxBwsvOe2cKLGLJQCUAo6ClHMgAAEIJCNgS0ng8xbcfXehUj0t2Sre2eqjozvklBF+lP2Ny+y+DXXyq3XK7rWUYrW0eOHlM8+IMo9YAkAp4ChIOQcCEIBAMgK2lAQOdgD+J9gBOC7ZKt7Z6gv7BzcADuIGwN54PrO9Rv75VXU3AsbJoVgCQClgVR8H+oEABCDQCwFLSgLPXXDXs9VK4TBVMbp4aquMbVB5q5uqmWXfz+qgRPC3X2pWNpFCUZ654dJZkco3xxIASgErixEdQQACEHgHAVtKAs/5xuIVUpX9VYXoikNaZGht8OYbjncQ2NRZ7KkLoOwoFF8JigIdEKW/mAJAKeAoUDkHAhCAQDICdpQEPn/+PZsqUhmabA3vbPXNaS3S5Gn53/4YhuWBL3l+QH+nRf734JHLjQvnzRoRpUFkAaAUcBScnAMBCEAgHQEbSgKfP39xR7Bhr+wVddcftkNKkb9t0vFzrXV3sDFy4ZKB6qYdvA1w0aWzGqJ0GDkklAKOgpNzIAABCKQjYENJ4ODnXqX79TccviMdlJy3nvusQgEIWC2aNyvSd3ukk0L2lALOeQayPAhAwAoCNpQERgDMpoL1AvBXF/zTOZu2bPqeWSyMBgEIQMAvAkMHjfzyTxed9cMsV40AmKVvvQD89YX/Mn/jpg2XmcXCaBCAAAT8IjBi2Iir/991f3dFlqtGAMzSt14A/vLcm2/e3LJV2ashzeJlNAhAAAJuEBgycNjN/3nj/z47y9kiAGbpWy8Anz73H3+xrWXzJ8xiYTQIQAACfhEYNHC/X/zsxi99KstVIwBm6VsvAJ+c86PftWzf8kGzWBgNAhCAgF8EBg0Y/Luf3XT2jCxXjQCYpW+/AJz3w6dadmyL9HpBs+gYDQIQgEB+CAxuHvjUbd87Z3qWK0IAzNK3XgA+dc73l+/YuSPS6wXNomM0CEAAAvkhMLBx4Ms//8E5B2a5IgTALH3rBeATX/7+661tO0aaxcJoEIAABPwi0Fjf9Povbz5vdJarRgDM0rdeAD72xRu2t3W2q31dkVnGjAYBCEDAegINjY3bb//BnMFZThQBMEvfegH48NmL2jvb2+rNYmE0CEAAAn4RqK1v6Ljz5rmR3uWuiwwCoIts7/1aLwBnfuG6cldXd1BoiAMCEIAABHQRqKurqdzxowtLuvqP0i8CEIWSunOsF4DTzvpOtVoN6kNxQAACEICANgKFQlHu+devRq7TomMiCIAOqn33ab0AqE4Is3gZDQIQgIA7BKJWc9O1ItXXe6oB7jtSCICuTKZfCEAAAo4RQAAcC1jK6SIAKQHSHAIQgEBeCCAAeYlktHUgANE4cRYEIACB3BNAAHIf4j0WiAD4FW9WCwEIQKBPAgiAX8mBAPgVb1YLAQhAAAEgB3oIIAAkAgQgAAEI9BBgB8CvREAA/Io3q4UABCDADgA5wA4AOQABCEAAAm8RYAfAr2xgB8CveLNaCEAAAuwAkAPsAJADEIAABCDADoCvOcAOgK+RZ90QgAAE9iLATwB+pQQC4Fe8WS0EIAABfgIgB/gJgByAAAQgAAF+AvA1B9gB8DXyrBsCEIAAPwF4nQMIgNfhZ/EQgAAE2AHwNQcQAF8jz7ohAAEI5HwHgACbJRD1JtJC1GnNmb+4GvVczoMABCAAgeQEol7Ak4+w75Zc73WRNdNv1PxBAMzEg1EgAAEIRCYQ9QIeucOYJyIAMYFZdnrU/EEALAsc04EABCAQ9QKuixQCoIusmX6j5k9mAvDC8mfMkGAUCEAAApoJHHLgEUpHiHoBVzro2zpDAHSRNdNv1PxBAMzEg1EgAIEcE0AAchxcB5eGADgYNKYMAQi4SQABcDNueZ01ApDXyLIuCEDAOgIIgHUh8XpCCIDX4WfxEICASQIIgEnajNUfAQSgP0L8OwQgAAFFBBAARSDpRgkBBEAJRjqBAAQg0D8BBGDfjHjqa998ssofngLo/7PNGRCAAAT2SSCrC7iusKh+DBABQAD2IEBC6Pro0i8EIGCaAALADkCanMsqf9gBSBM12kIAAhAICGR1AdcFnx0AXWR77zer/EEAzMaZ0SAAgRwSyOoCrgslAqCLLALQQ4CfAMwmGKOJDBnQJUcdsF0OGd8iE0a0yZih7TKosSwN9eUePO0dJdneVpK1mxtk5YZGeWHlAHnqlUGypaUWfBDYJwEEgJ8A0nxEssofdgDSRI221hMY1NQtJx+5UU45aqMcNLY10XxfXN0s9z01XO5/Zrhs31mTqA8a5ZtAVhdwXVTZAdBFlh0AdgDM5paXow0f1Cl/ceJaOeOY9VJfW1HCoL2zKIsfHyk/e3iMbNxep6RPOskHAQSAHYA0mZxV/rADkCZqtLWOQE2xKh957+vyuVNXSmOdmi/+vRfZ0VWU2x4aIz/9/VjpKhetY8CEzBPI6gKua6XsAOgiyw4AOwBmc8ub0cYPb5dLP/OSHDB6p5E1L1/bLNfcOkVWbWwwMh6D2EsAAWAHIE12ZpU/7ACkiRptrSFw4qGb5aJPLtf2V39fC20Lbhz8zi8OkIefG2oNCyZinkBWF3BdK1W9A6BrnvTbOwFeBUxmeENg5vQNcv7HX5FSsP2fxVGpFOSmO/eXOx8blcXwjGkBAQTAgiAwhd0EEACSwQsCZx67XuZ89BUr1vr9QAJ++YfRVsyFSZglgACY5c1o+yaAAJAhuScQbvtfOnuZFOP+5f/kqmhspo+Pdt4bZ4U7AfN/OlUeeX5IrHac7D4BBMD9GOZpBQhAnqLJWt5BYOzQDvneOc9K0xsv8YmFSJMAhHNoCx4VPO+HhwcvEuLGwFgxcfxkBMDxAOZs+ghAzgLKct4iUFOqyo1nL0l+t79GAQhnuWxNk8y9+TDpDnYEOPwggAD4EWdXVokAuBIp5hmbwGc+sFb+7kOvxW63u4FmAQjH+ce7J/a8MIjDDwIIgB9xdmWVCIArkWKesQiEb/j757lPS0Oal/wYEIDwp4C/W3iUbN5BHYFYAXb0ZATA0cDldNoIQE4D6/uyzj7jVfnE8evSYTAgAOEEf/7IaPnR4v3TzZXWThBAAJwIkzeTRAC8CbU/Cw0L+/z7RU+mf7e/IQEIawf87XXTKSDkQYoiAB4E2aElIgAOBYupRiPw8eAv/y8HOwCpD0MCEM7ze3dMktsf5QVBqWNmeQcIwL4DRPn3ffPJKn8i36as+tWQJITlVzQLp3fjl5ckLum7x3IMCsDSVQNkzs2HWkiTKakkkNUFXOUa3t4X13tdZHvvN6v8QQDMxpnREhIYOrBL/uOrT0qhoOB1vwYFoFotyF9dO122tHIzYMLQO9Esqwu4LjgIgC6yCEAPAXYAzCaY66PNOGKT/P2nl6lZhkEBCCd8zX9Okd8vGaZm7vRiJQEEgJ8A0iRmVvnDDkCaqNHWGIHwt//wHgAlh2EB+K/gaYAf8jSAktDZ2klWF3BdPNgB0EWWHQB2AMzmVi5Gu+ZzL8i7p2xTsxbDAvDHF/eTy245WM3c6cVKAggAOwBpEjOr/GEHIE3UaGuMwI+/8pSMGdKhZjzDArBmc72c9d2j1MydXqwkkNUFXBcMdgB0kWUHgB0As7mVi9F+dskTMrCxW81aDAvAtp21MvubR6uZO71YSQABYAcgTWJmlT/sAKSJGm2NEbjzysckLAKk5DAsAF3lonz4ymOVTJ1O7CSQ1QVcFw12AHSRZQeAHQCzuZWL0RCAXIQxt4tAANgBSJPcWeUPOwBpokZbYwT4CcAYagZKQCCrC3iCqUZqonoHINKgnKSMAK8CVoaSjmwg8OMLnpYxQ9vVTMXwTwDcBKgmbDb3ggDYHB3/5oYA+BfzXK+YxwBzHV7nF4cAOB/CXC0AAchVOFkMLwIiB2wmgADYHB3/5oYA+BfzXK94xuHBq4Bnu/kq4AW3TpUHnh2a6/j4vjgEwPcMsGv9CIBd8WA2KQkMae6Sn1xMMaCUGGmuiQACoAks3SYigAAkwkYjmwnceHZQDnhca/opGrwJ8PmVA+T8H1EOOH3Q7O4BAbA7Pr7NDgHwLeIerPdjx62Tc858Nf1KDQrATb+aJL96bFT6OdOD1QQQAKvD493kEADvQp7/BQ9q6pZbLnxSGuoq6RZrSADaO4vyt9dNl+07a9LNl9bWE0AArA+RVxNEALwKtz+LPXvWq/KJE1KWBTYkAD9/eIz86O6J/gTHXm2JhgAACZZJREFU45UiAB4H38KlIwAWBoUppScwfFCn/PPcp9PtAhgQgLaOkpy18EjZ0lKbftH0YD0BBMD6EHk1QQTAq3D7tdjZ718j/2vmyuSLNiAA4V/+4Q4Ahx8EEAA/4uzKKhEAVyLFPGMTqClW5YYvLZEpY3fGbtvTQLMALFvTLHNvPlS6K5FLbSRbB62sIYAAWBMKJhIQQABIg1wTGDu0Q753zrPSVF+Ov06NAtAW3Ph37g8Ol1UbG+LPixbOEkAAnA1dLieOAOQyrCzq7QTeN22zXPaZZVIMdgRiHZoEoBL8xX/1T6bK/7wwJNZ0ONl9AgiA+zHM0woQgDxFk7X0SeCMY9fL3I++kjmharUgN/xykix+YmTmc2EC5gkgAOaZM2LfBBAAssMbAjOnb5DzP/6KlOLuBCgiFP7lf9Mdk+TOP/Llrwipc90gAM6FLNcTRgByHV4WtzeBE961Rb72qeXSmOSegBQ4dwaP+337Zwey7Z+CYR6aIgB5iGJ+1oAA5CeWrCQigXHD2uWS2S8lfzog4jhvnhbe7b/gP6fKms31MVtyet4IIAB5i6jb60EA3I4fs09IIPwZ4KPvfV0+d8oqbbsBHV1Fue2hMfKT34+T7jKP+iUMVa6aIQC5Cqfzi0EAnA8hC0hDYOjALvn0iWvljGNeT/fWwLdNIny3/52Pj5TbHhzLG/7SBCeHbRGAHAbV4SUhAA4Hj6mrIxAWEDrp8E1yylEb5eCglHChEO+RwfDu/hdWNctvnx4u9z8zTHa0UdhHXXTy0xMCkJ9Y5mElCEAeosgalBLYb0CXHDlpu7xrQotMGNEuo4e0y+Dmbmms2/UyobbOkmxrrZF1Wxpk5YYGeX7lAHl6xSDZyvv8lcYhj50hAHmMqrtrQgDcjR0zhwAEHCOAADgWsJxPFwHIeYBZHgQgYA8BBMCeWDATagGQAxCAAASMEUAAjKFmoAgE2AGIAIlTIAABCKgggACooEgfqgggAKpI0g8EIACBfgggAKSITQQQAJuiwVwgAIFcE0AAch1e5xaHADgXMiYMAQi4SgABcDVy+Zw3ApDPuLIqCEDAQgIIgIVB8XhKCIDHwWfpEICAWQIIgFnejLZvAggAGQIBCEDAEAEEwBBoholEAAGIhImTIAABCKQngACkZ0gP6ghYLwDqlkpPEIAABPJFIOoFXNeq58xfHK9qlq6J0G8iAlHzJ3IxcxIiURxoBAEIQCA2gagX8NgdR2zA9T4iKEtPi5o/CIClAWRaEICAvwSiXsB1EUIAdJE102/U/EEAzMSDUSAAAQhEJhD1Ah65w5gnIgAxgVl2etT8QQAsCxzTgQAEIBD1Aq6LFAKgi6yZfqPmDwJgJh6MAgEIQCAygagX8MgdxjwRAYgJzLLTo+YPAmBZ4JgOBCAAgagXcF2kEABdZM30GzV/EAAz8WAUCEAAApEJRL2AR+4w5okIQExglp0eNX8QAMsCx3QgAAEIRL2A6yKFAOgia6bfqPmDAJiJB6NAAAIQiEwg6gU8cocxT0QAYgKz7PSo+YMAWBY4pgMBCEAg6gVcFykEQBdZM/1GzR8EwEw8GAUCEIBAZAJRL+CRO4x5IgIQE5hlp0fNHwTAssAxHQhAAAJRL+C6SCEAusia6Tdq/iAAZuLBKBCAAAQiE4h6AY/cYcwTEYCYwCw7PWr+IACWBY7pQAACEIh6AddFCgHQRdZMv1HzBwEwEw9GgQAEIBCZQNQLeOQOY56IAMQEZtnpUfMHAbAscEwHAhCAQNQLuC5SCIAusmb6jZo/CICZeDAKBCAAgcgEol7AI3cY80QEICYwy06Pmj8IgGWBYzoQgAAEol7AdZFCAHSRNdNv1PxBAMzEg1EgAAEIRCYQ9QIeucOYJyIAMYFZdnrU/IksADM/f23VsjVqnE7Nlff++MKrNA5A1xCAQAwCZ37+2ou7RL4Vo4nTp97744sjX5tNLtSv7wGTZJONlTZPIieZP4Hnyz9ZKtIKAnoJ+CQBaS/suiLhz/eALoJq+02bJwjAHvHgy19tetIbBNQS8EUC0l7Y1VJ/qzcEQBfZZP2mzRMEYDd3vvyTpSCtIGCWgA8SkPbCrisiCIAussn6TZsnCEAPd778k6UfrSCQDYG8S0DaC7uuqCAAusgm6zdtniAAfPknyzxaQSBjAnmWgLQXdl2hQQB0kU3Wb9o88VwA+Ms/WdrRCgJ2EMirBKS9sOuKDgKgi2yyftPmiccCwJd/spSjFQTsIpBHCUh7YdcVIQRAF9lk/abNE08FgC//ZOlGKwjYSSBvEpD2wq4rSgiALrLJ+k2bJx4KAF/+yVKNVhCwm0CeJCDthV1XpBAAXWST9Zs2TzwTAL78k6UZrSDgBoG8SEDaC7uuaCEAusgm6zdtnngkAHz5J0sxWkHALQJ5kIC0F3ZdEUMAdJFN1m/aPPFEAPjyT5ZetIKAmwRcl4C0F3ZdUUMAdJFN1m/aPPFAAPjyT5ZatIKA2wRcloC0F3ZdkUMAdJFN1m/aPMm5APDlnyytaAWBfBBwVQLSXth1RQ8B0EU2Wb9p8yTHAsCXf7KUohUE8kXARQlIe2HXFUEEQBfZZP2mzZOcCgBf/snSiVYQyCcB1yQg7YVdVxQRAF1kk/WbNk9yKAB8+SdLJVpBIN8EXJKAtBd2XZFEAHSRTdZv2jzJmQDw5Z8sjWgFAT8IuCIBaS/suqKJAOgim6zftHmSIwHgyz9ZCtEKAn4RcEEC0l7YdUUUAdBFNlm/afMksgAkmx6tIAABCEAAAhCwkQACYGNUmBMEIAABCEBAMwEEQDNguocABCAAAQjYSAABsDEqzAkCEIAABCCgmQACoBkw3UMAAhCAAARsJIAA2BgV5gQBCEAAAhDQTAAB0AyY7iEAAQhAAAI2EkAAbIwKc4IABCAAAQhoJoAAaAZM9xCAAAQgAAEbCSAANkaFOUEAAhCAAAQ0E0AANAOmewhAAAIQgICNBBAAG6PCnCAAAQhAAAKaCSAAmgHTPQQgAAEIQMBGAgiAjVFhThCAAAQgAAHNBBAAzYDpHgIQgAAEIGAjAQTAxqgwJwhAAAIQgIBmAgiAZsB0DwEIQAACELCRAAJgY1SYEwQgAAEIQEAzAQRAM2C6hwAEIAABCNhIAAGwMSrMCQIQgAAEIKCZAAKgGTDdQwACEIAABGwkgADYGBXmBAEIQAACENBMAAHQDJjuIQABCEAAAjYSQABsjApzggAEIAABCGgmgABoBkz3EIAABCAAARsJIAA2RoU5QQACEIAABDQT+P8xM9ylPDlSlAAAAABJRU5ErkJggg==;" vertex="1" parent="1">
          <mxGeometry x="480" y="340" width="62" height="62" as="geometry" />
        </mxCell>
        <mxCell id="H3UDUS9OnX6FCk1xAzzP-7" value="&lt;div&gt;Outbound only&lt;/div&gt;&lt;div&gt;(No inbound connections allowed)&lt;/div&gt;" style="text;html=1;align=center;verticalAlign=middle;resizable=0;points=[];autosize=1;strokeColor=none;fillColor=none;" vertex="1" parent="1">
          <mxGeometry x="280" y="310" width="200" height="40" as="geometry" />
        </mxCell>
      </root>
    </mxGraphModel>
  </diagram>
</mxfile>
